<svg xmlns="http://www.w3.org/2000/svg" xmlns:xlink="http://www.w3.org/1999/xlink" width="800" zoomAndPan="magnify" viewBox="0 0 600 149.999998" height="200" preserveAspectRatio="xMidYMid meet" version="1.0"><defs><g/></defs><g fill="#ff3131" fill-opacity="1"><g transform="translate(5.891783, 111.626125)"><g><path d="M 51.046875 -4.109375 C 51.046875 -4.109375 50.972656 -3.765625 50.828125 -3.078125 C 50.691406 -2.390625 50.382812 -1.703125 49.90625 -1.015625 C 49.425781 -0.335938 48.675781 0 47.65625 0 C 46.425781 0 45.3125 -0.0507812 44.3125 -0.15625 C 43.320312 -0.257812 42.210938 -0.3125 40.984375 -0.3125 C 39.953125 -0.3125 39.023438 -0.273438 38.203125 -0.203125 C 37.378906 -0.140625 36.457031 -0.109375 35.4375 -0.109375 C 34.195312 -0.109375 33.351562 -0.347656 32.90625 -0.828125 C 32.46875 -1.304688 32.226562 -1.851562 32.1875 -2.46875 C 32.15625 -3.082031 32.109375 -3.5625 32.046875 -3.90625 C 32.046875 -4.25 31.992188 -4.96875 31.890625 -6.0625 C 31.785156 -7.15625 31.664062 -8.265625 31.53125 -9.390625 C 31.394531 -10.523438 31.15625 -11.226562 30.8125 -11.5 C 30.539062 -11.769531 30.421875 -11.890625 30.453125 -11.859375 C 30.484375 -11.828125 30.328125 -11.914062 29.984375 -12.125 C 29.921875 -12.1875 29.117188 -12.234375 27.578125 -12.265625 C 26.035156 -12.304688 24.679688 -12.328125 23.515625 -12.328125 C 21.597656 -12.328125 20.503906 -12.066406 20.234375 -11.546875 C 19.960938 -11.035156 19.722656 -10.195312 19.515625 -9.03125 C 19.515625 -8.757812 19.476562 -8.054688 19.40625 -6.921875 C 19.34375 -5.796875 19.238281 -4.6875 19.09375 -3.59375 C 18.957031 -2.5 18.789062 -1.78125 18.59375 -1.4375 C 18.25 -0.957031 17.867188 -0.613281 17.453125 -0.40625 C 17.046875 -0.207031 16.429688 -0.109375 15.609375 -0.109375 C 14.648438 -0.109375 13.773438 -0.125 12.984375 -0.15625 C 12.203125 -0.1875 11.332031 -0.203125 10.375 -0.203125 C 9.34375 -0.203125 8.3125 -0.1875 7.28125 -0.15625 C 6.257812 -0.125 5.234375 -0.109375 4.203125 -0.109375 C 3.316406 -0.109375 2.445312 -0.257812 1.59375 -0.5625 C 0.738281 -0.875 0.3125 -1.710938 0.3125 -3.078125 C 0.3125 -3.492188 0.394531 -4.144531 0.5625 -5.03125 C 0.738281 -5.925781 0.925781 -6.921875 1.125 -8.015625 C 1.332031 -9.378906 1.488281 -10.570312 1.59375 -11.59375 C 1.695312 -12.625 1.882812 -13.789062 2.15625 -15.09375 C 2.363281 -16.257812 2.566406 -17.320312 2.765625 -18.28125 C 2.972656 -19.238281 3.179688 -20.300781 3.390625 -21.46875 C 3.734375 -23.175781 3.972656 -24.695312 4.109375 -26.03125 C 4.242188 -27.363281 4.445312 -28.890625 4.71875 -30.609375 C 5 -32.316406 5.273438 -33.820312 5.546875 -35.125 C 5.816406 -36.425781 6.054688 -37.929688 6.265625 -39.640625 C 6.398438 -40.804688 6.519531 -41.882812 6.625 -42.875 C 6.726562 -43.875 6.882812 -44.988281 7.09375 -46.21875 C 7.363281 -47.582031 7.632812 -48.847656 7.90625 -50.015625 C 8.175781 -51.179688 8.453125 -52.445312 8.734375 -53.8125 C 9.140625 -56.007812 9.425781 -57.960938 9.59375 -59.671875 C 9.769531 -61.378906 10.097656 -63.296875 10.578125 -65.421875 C 10.921875 -66.785156 11.28125 -68.050781 11.65625 -69.21875 C 12.03125 -70.382812 12.457031 -71.207031 12.9375 -71.6875 C 13.894531 -72.4375 15.398438 -72.8125 17.453125 -72.8125 C 19.234375 -72.8125 20.828125 -72.742188 22.234375 -72.609375 C 23.640625 -72.472656 25.195312 -72.40625 26.90625 -72.40625 C 28.207031 -72.40625 29.507812 -72.421875 30.8125 -72.453125 C 32.113281 -72.492188 33.414062 -72.515625 34.71875 -72.515625 L 35.125 -72.515625 C 36.488281 -72.515625 37.460938 -72.375 38.046875 -72.09375 C 38.628906 -71.820312 39.160156 -71.242188 39.640625 -70.359375 C 39.773438 -70.285156 39.875 -70.09375 39.9375 -69.78125 C 40.007812 -69.476562 40.082031 -69.257812 40.15625 -69.125 C 40.15625 -69.125 40.238281 -68.625 40.40625 -67.625 C 40.582031 -66.632812 40.804688 -65.519531 41.078125 -64.28125 C 41.347656 -63.050781 41.566406 -61.941406 41.734375 -60.953125 C 41.910156 -59.960938 42 -59.46875 42 -59.46875 C 42.28125 -57.820312 42.488281 -56.332031 42.625 -55 C 42.757812 -53.664062 42.960938 -52.175781 43.234375 -50.53125 C 43.578125 -48.539062 43.898438 -46.738281 44.203125 -45.125 C 44.515625 -43.519531 44.878906 -41.726562 45.296875 -39.75 C 45.640625 -38.175781 45.945312 -36.71875 46.21875 -35.375 C 46.488281 -34.039062 46.726562 -32.585938 46.9375 -31.015625 C 47.28125 -28.890625 47.5 -26.988281 47.59375 -25.3125 C 47.695312 -23.632812 47.890625 -21.734375 48.171875 -19.609375 C 48.515625 -17.554688 48.90625 -15.414062 49.34375 -13.1875 C 49.789062 -10.96875 50.1875 -9.019531 50.53125 -7.34375 C 50.875 -5.664062 51.046875 -4.585938 51.046875 -4.109375 Z M 28.96875 -33.484375 C 28.96875 -35.328125 28.847656 -37.15625 28.609375 -38.96875 C 28.367188 -40.789062 28.128906 -42.382812 27.890625 -43.75 C 27.648438 -45.125 27.492188 -46.050781 27.421875 -46.53125 C 27.347656 -47.34375 27.257812 -48.191406 27.15625 -49.078125 C 27.0625 -49.972656 26.945312 -50.488281 26.8125 -50.625 C 26.601562 -51.382812 26.257812 -51.765625 25.78125 -51.765625 C 25.363281 -51.765625 25.085938 -51.421875 24.953125 -50.734375 C 24.890625 -50.597656 24.785156 -50.203125 24.640625 -49.546875 C 24.503906 -48.898438 24.382812 -48.269531 24.28125 -47.65625 C 24.1875 -47.039062 24.101562 -46.628906 24.03125 -46.421875 C 23.894531 -45.804688 23.757812 -45.238281 23.625 -44.71875 C 23.488281 -44.207031 23.347656 -43.644531 23.203125 -43.03125 C 23.203125 -42.820312 23.132812 -42.238281 23 -41.28125 C 22.863281 -40.320312 22.707031 -39.257812 22.53125 -38.09375 C 22.363281 -36.9375 22.210938 -35.894531 22.078125 -34.96875 C 21.941406 -34.039062 21.875 -33.476562 21.875 -33.28125 C 21.875 -31.695312 22.195312 -30.71875 22.84375 -30.34375 C 23.5 -29.96875 24.238281 -29.78125 25.0625 -29.78125 C 25.75 -29.78125 26.570312 -29.929688 27.53125 -30.234375 C 28.488281 -30.546875 28.96875 -31.628906 28.96875 -33.484375 Z M 28.96875 -33.484375 "/></g></g></g><g fill="#ff3131" fill-opacity="1"><g transform="translate(57.236713, 111.626125)"><g/></g></g><g fill="#ff3131" fill-opacity="1"><g transform="translate(80.752696, 111.626125)"><g><path d="M 54.125 -34.609375 C 54.125 -34.128906 54.035156 -33.148438 53.859375 -31.671875 C 53.691406 -30.203125 53.398438 -28.523438 52.984375 -26.640625 C 52.578125 -24.765625 51.960938 -22.867188 51.140625 -20.953125 C 50.460938 -19.441406 49.675781 -17.984375 48.78125 -16.578125 C 47.894531 -15.179688 47.414062 -14.273438 47.34375 -13.859375 C 47.28125 -13.378906 47.398438 -12.898438 47.703125 -12.421875 C 48.015625 -11.941406 48.410156 -11.289062 48.890625 -10.46875 C 49.160156 -10.0625 49.632812 -9.222656 50.3125 -7.953125 C 51 -6.691406 51.664062 -5.441406 52.3125 -4.203125 C 52.96875 -2.972656 53.296875 -2.15625 53.296875 -1.75 C 53.296875 -0.988281 53.003906 -0.523438 52.421875 -0.359375 C 51.847656 -0.191406 51.320312 -0.109375 50.84375 -0.109375 C 49.738281 -0.109375 48.707031 -0.15625 47.75 -0.25 C 46.789062 -0.351562 45.734375 -0.40625 44.578125 -0.40625 C 43.484375 -0.40625 42.488281 -0.351562 41.59375 -0.25 C 40.707031 -0.15625 39.710938 -0.109375 38.609375 -0.109375 C 37.929688 -0.109375 37.421875 -0.414062 37.078125 -1.03125 C 36.734375 -1.644531 36.1875 -2.429688 35.4375 -3.390625 C 33.925781 -2.640625 32.109375 -1.785156 29.984375 -0.828125 C 27.867188 0.128906 25.128906 0.609375 21.765625 0.609375 C 18.960938 0.609375 16.722656 0.269531 15.046875 -0.40625 C 13.367188 -1.09375 11.84375 -1.953125 10.46875 -2.984375 C 9.789062 -3.523438 9.054688 -4.15625 8.265625 -4.875 C 7.484375 -5.59375 6.613281 -6.640625 5.65625 -8.015625 C 5.375 -8.554688 5.0625 -9.132812 4.71875 -9.75 C 4.375 -10.375 4.203125 -10.71875 4.203125 -10.78125 C 3.929688 -11.332031 3.625 -11.984375 3.28125 -12.734375 C 2.9375 -13.484375 2.597656 -14.441406 2.265625 -15.609375 C 2.117188 -16.160156 1.976562 -16.945312 1.84375 -17.96875 C 1.707031 -19 1.640625 -20.195312 1.640625 -21.5625 C 1.640625 -23.757812 1.789062 -25.816406 2.09375 -27.734375 C 2.40625 -29.648438 3.078125 -31.53125 4.109375 -33.375 C 5.140625 -35.226562 6.78125 -37.144531 9.03125 -39.125 C 10.0625 -40.082031 10.988281 -40.816406 11.8125 -41.328125 C 12.632812 -41.847656 13.179688 -42.28125 13.453125 -42.625 C 14.066406 -43.375 14.375 -43.957031 14.375 -44.375 C 14.375 -44.914062 14.164062 -45.546875 13.75 -46.265625 C 13.34375 -46.984375 12.9375 -47.890625 12.53125 -48.984375 C 11.78125 -50.898438 11.332031 -52.539062 11.1875 -53.90625 C 11.050781 -55.28125 10.984375 -56.3125 10.984375 -57 C 11.054688 -59.8125 11.707031 -62.617188 12.9375 -65.421875 C 14.175781 -68.222656 16.570312 -70.445312 20.125 -72.09375 C 21.632812 -72.78125 22.953125 -73.207031 24.078125 -73.375 C 25.210938 -73.550781 26.050781 -73.640625 26.59375 -73.640625 C 27.007812 -73.640625 27.847656 -73.601562 29.109375 -73.53125 C 30.378906 -73.46875 31.835938 -73.195312 33.484375 -72.71875 C 35.128906 -72.238281 36.753906 -71.347656 38.359375 -70.046875 C 39.960938 -68.742188 41.28125 -66.859375 42.3125 -64.390625 C 42.925781 -63.023438 43.285156 -61.722656 43.390625 -60.484375 C 43.492188 -59.253906 43.546875 -58.4375 43.546875 -58.03125 C 43.546875 -53.644531 42.757812 -50.097656 41.1875 -47.390625 C 39.613281 -44.691406 37.96875 -42.347656 36.25 -40.359375 C 35.90625 -40.015625 35.578125 -39.6875 35.265625 -39.375 C 34.960938 -39.070312 34.640625 -38.75 34.296875 -38.40625 C 34.023438 -37.925781 33.890625 -37.550781 33.890625 -37.28125 C 33.890625 -36.800781 34.179688 -36.113281 34.765625 -35.21875 C 35.347656 -34.332031 35.773438 -33.617188 36.046875 -33.078125 C 36.597656 -32.253906 37.078125 -31.5 37.484375 -30.8125 C 37.898438 -30.125 38.347656 -29.367188 38.828125 -28.546875 C 38.960938 -28.679688 39.113281 -28.816406 39.28125 -28.953125 C 39.457031 -29.097656 39.578125 -29.269531 39.640625 -29.46875 C 40.191406 -30.226562 40.5 -31.050781 40.5625 -31.9375 C 40.632812 -32.832031 40.671875 -33.3125 40.671875 -33.375 L 40.671875 -34.71875 C 40.671875 -35.46875 40.925781 -36.097656 41.4375 -36.609375 C 41.957031 -37.128906 42.59375 -37.390625 43.34375 -37.390625 C 44.300781 -37.390625 45.171875 -37.335938 45.953125 -37.234375 C 46.742188 -37.128906 47.617188 -37.078125 48.578125 -37.078125 C 49.128906 -37.078125 49.625 -37.109375 50.0625 -37.171875 C 50.507812 -37.242188 51.007812 -37.28125 51.5625 -37.28125 C 52.039062 -37.28125 52.585938 -37.125 53.203125 -36.8125 C 53.816406 -36.507812 54.125 -35.773438 54.125 -34.609375 Z M 30.40625 -57 C 30.40625 -58.164062 30.0625 -58.988281 29.375 -59.46875 C 28.6875 -59.945312 28.070312 -60.1875 27.53125 -60.1875 C 26.570312 -60.1875 25.867188 -59.753906 25.421875 -58.890625 C 24.972656 -58.035156 24.71875 -57.269531 24.65625 -56.59375 C 24.582031 -55.90625 24.75 -54.941406 25.15625 -53.703125 C 25.570312 -52.472656 26.125 -51.484375 26.8125 -50.734375 C 27.082031 -51.003906 27.320312 -51.175781 27.53125 -51.25 C 28.894531 -52.414062 29.710938 -53.546875 29.984375 -54.640625 C 30.265625 -55.734375 30.40625 -56.519531 30.40625 -57 Z M 27.3125 -16.328125 C 27.113281 -16.878906 26.894531 -17.375 26.65625 -17.8125 C 26.414062 -18.257812 26.125 -18.722656 25.78125 -19.203125 C 25.09375 -20.367188 24.507812 -21.429688 24.03125 -22.390625 C 23.550781 -23.347656 23.035156 -24.441406 22.484375 -25.671875 C 22.285156 -26.148438 22.113281 -26.5625 21.96875 -26.90625 C 21.832031 -27.25 21.628906 -27.660156 21.359375 -28.140625 C 20.816406 -27.796875 20.40625 -27.453125 20.125 -27.109375 C 19.238281 -26.222656 18.726562 -25.28125 18.59375 -24.28125 C 18.457031 -23.289062 18.390625 -22.691406 18.390625 -22.484375 C 18.390625 -22.003906 18.523438 -21.234375 18.796875 -20.171875 C 19.066406 -19.117188 19.664062 -18.144531 20.59375 -17.25 C 21.519531 -16.363281 22.941406 -15.921875 24.859375 -15.921875 C 25.398438 -15.921875 25.910156 -15.972656 26.390625 -16.078125 C 26.867188 -16.179688 27.175781 -16.265625 27.3125 -16.328125 Z M 27.3125 -16.328125 "/></g></g></g><g fill="#ff3131" fill-opacity="1"><g transform="translate(136.410605, 111.626125)"><g/></g></g><g fill="#ff3131" fill-opacity="1"><g transform="translate(159.926587, 111.626125)"><g><path d="M 52.078125 -2.46875 C 52.078125 -1.375 51.644531 -0.738281 50.78125 -0.5625 C 49.925781 -0.394531 49.429688 -0.3125 49.296875 -0.3125 L 48.890625 -0.3125 C 47.992188 -0.3125 47.21875 -0.34375 46.5625 -0.40625 C 45.914062 -0.476562 45.148438 -0.515625 44.265625 -0.515625 C 43.234375 -0.515625 42.320312 -0.515625 41.53125 -0.515625 C 40.75 -0.515625 39.878906 -0.476562 38.921875 -0.40625 C 38.378906 -0.40625 37.867188 -0.367188 37.390625 -0.296875 C 36.910156 -0.234375 36.394531 -0.203125 35.84375 -0.203125 C 34.195312 -0.203125 33.148438 -0.734375 32.703125 -1.796875 C 32.265625 -2.859375 31.769531 -3.972656 31.21875 -5.140625 C 30.738281 -6.367188 30.222656 -7.441406 29.671875 -8.359375 C 29.128906 -9.285156 28.582031 -10.332031 28.03125 -11.5 C 27.695312 -12.320312 27.410156 -13.054688 27.171875 -13.703125 C 26.929688 -14.359375 26.601562 -15.097656 26.1875 -15.921875 C 25.78125 -16.742188 25.40625 -17.460938 25.0625 -18.078125 C 24.71875 -18.691406 24.269531 -19 23.71875 -19 C 22.96875 -19 22.554688 -18.640625 22.484375 -17.921875 C 22.421875 -17.203125 22.390625 -16.707031 22.390625 -16.4375 C 22.390625 -15.40625 22.40625 -14.476562 22.4375 -13.65625 C 22.46875 -12.832031 22.484375 -11.941406 22.484375 -10.984375 C 22.484375 -10.234375 22.46875 -9.550781 22.4375 -8.9375 C 22.40625 -8.320312 22.390625 -7.632812 22.390625 -6.875 C 22.390625 -6.195312 22.421875 -5.546875 22.484375 -4.921875 C 22.554688 -4.304688 22.59375 -3.625 22.59375 -2.875 C 22.59375 -1.78125 22.316406 -1.046875 21.765625 -0.671875 C 21.222656 -0.296875 20.675781 -0.109375 20.125 -0.109375 C 19.03125 -0.109375 18.054688 -0.15625 17.203125 -0.25 C 16.347656 -0.351562 15.335938 -0.40625 14.171875 -0.40625 C 12.867188 -0.40625 11.6875 -0.335938 10.625 -0.203125 C 9.5625 -0.0664062 8.382812 0 7.09375 0 C 5.988281 0 5.144531 -0.335938 4.5625 -1.015625 C 3.988281 -1.703125 3.703125 -2.5625 3.703125 -3.59375 C 3.703125 -4.34375 3.734375 -5.023438 3.796875 -5.640625 C 3.867188 -6.265625 3.9375 -6.914062 4 -7.59375 C 4.070312 -8.894531 4.125 -10.078125 4.15625 -11.140625 C 4.1875 -12.203125 4.203125 -13.382812 4.203125 -14.6875 C 4.140625 -17.289062 4.054688 -19.617188 3.953125 -21.671875 C 3.847656 -23.722656 3.796875 -26.050781 3.796875 -28.65625 C 3.796875 -31.257812 3.847656 -33.640625 3.953125 -35.796875 C 4.054688 -37.953125 4.109375 -40.332031 4.109375 -42.9375 C 4.109375 -44.644531 4.070312 -46.164062 4 -47.5 C 3.9375 -48.832031 3.90625 -50.359375 3.90625 -52.078125 C 3.90625 -53.847656 3.9375 -55.46875 4 -56.9375 C 4.070312 -58.414062 4.109375 -60.046875 4.109375 -61.828125 C 4.109375 -62.921875 4.054688 -63.894531 3.953125 -64.75 C 3.847656 -65.601562 3.832031 -66.582031 3.90625 -67.6875 C 3.90625 -68.707031 4.226562 -69.832031 4.875 -71.0625 C 5.53125 -72.300781 7.019531 -72.921875 9.34375 -72.921875 C 10.4375 -72.921875 11.394531 -72.882812 12.21875 -72.8125 C 13.039062 -72.75 14 -72.71875 15.09375 -72.71875 C 17.695312 -72.644531 20.039062 -72.675781 22.125 -72.8125 C 24.21875 -72.945312 26.566406 -73.015625 29.171875 -73.015625 C 31.148438 -73.015625 33.300781 -72.828125 35.625 -72.453125 C 37.957031 -72.078125 40.203125 -71.238281 42.359375 -69.9375 C 44.515625 -68.632812 46.382812 -66.648438 47.96875 -63.984375 C 48.375 -63.160156 48.679688 -62.441406 48.890625 -61.828125 C 49.023438 -61.421875 49.226562 -60.941406 49.5 -60.390625 C 49.769531 -59.835938 50.046875 -59.117188 50.328125 -58.234375 C 50.597656 -57.410156 50.800781 -56.226562 50.9375 -54.6875 C 51.070312 -53.144531 51.171875 -51.601562 51.234375 -50.0625 C 51.304688 -48.519531 51.34375 -47.34375 51.34375 -46.53125 C 51.34375 -46.050781 51.289062 -44.832031 51.1875 -42.875 C 51.09375 -40.925781 50.664062 -38.679688 49.90625 -36.140625 C 49.15625 -33.609375 47.820312 -31.179688 45.90625 -28.859375 C 45.632812 -28.453125 45.34375 -28.09375 45.03125 -27.78125 C 44.726562 -27.46875 44.40625 -27.144531 44.0625 -26.8125 C 43.789062 -26.53125 43.535156 -26.320312 43.296875 -26.1875 C 43.054688 -26.050781 42.796875 -25.8125 42.515625 -25.46875 C 42.453125 -25.40625 42.367188 -25.269531 42.265625 -25.0625 C 42.160156 -24.851562 42.109375 -24.613281 42.109375 -24.34375 C 42.109375 -23.863281 42.445312 -22.9375 43.125 -21.5625 C 43.8125 -20.195312 44.53125 -18.828125 45.28125 -17.453125 C 46.039062 -16.085938 46.523438 -15.128906 46.734375 -14.578125 C 47.078125 -13.898438 47.367188 -13.269531 47.609375 -12.6875 C 47.847656 -12.101562 48.132812 -11.4375 48.46875 -10.6875 C 49.019531 -9.519531 49.566406 -8.472656 50.109375 -7.546875 C 50.660156 -6.617188 51.175781 -5.578125 51.65625 -4.421875 C 51.726562 -4.210938 51.816406 -3.953125 51.921875 -3.640625 C 52.023438 -3.335938 52.078125 -2.945312 52.078125 -2.46875 Z M 31.734375 -48.46875 C 31.734375 -49.363281 31.578125 -50.390625 31.265625 -51.546875 C 30.960938 -52.710938 30.414062 -53.722656 29.625 -54.578125 C 28.84375 -55.441406 27.734375 -55.875 26.296875 -55.875 L 25.875 -55.875 C 25.0625 -55.738281 24.414062 -55.5 23.9375 -55.15625 C 23.382812 -54.675781 23.003906 -54.175781 22.796875 -53.65625 C 22.585938 -53.144531 22.484375 -52.820312 22.484375 -52.6875 C 22.484375 -52.613281 22.445312 -52.128906 22.375 -51.234375 C 22.3125 -50.347656 22.265625 -49.34375 22.234375 -48.21875 C 22.203125 -47.09375 22.164062 -46.082031 22.125 -45.1875 C 22.09375 -44.300781 22.078125 -43.820312 22.078125 -43.75 C 22.078125 -42.445312 22.453125 -41.28125 23.203125 -40.25 C 23.960938 -39.226562 25.09375 -38.71875 26.59375 -38.71875 C 27.351562 -38.71875 27.988281 -38.816406 28.5 -39.015625 C 29.007812 -39.222656 29.40625 -39.46875 29.6875 -39.75 C 30.570312 -40.5 31.132812 -41.644531 31.375 -43.1875 C 31.613281 -44.726562 31.734375 -46.488281 31.734375 -48.46875 Z M 31.734375 -48.46875 "/></g></g></g><g fill="#ff3131" fill-opacity="1"><g transform="translate(213.428007, 111.626125)"><g/></g></g><g fill="#ff3131" fill-opacity="1"><g transform="translate(236.943989, 111.626125)"><g><path d="M 50.734375 -48.6875 C 50.734375 -47.582031 50.679688 -46.445312 50.578125 -45.28125 C 50.472656 -44.125 50.320312 -42.453125 50.125 -40.265625 C 50.050781 -39.304688 49.910156 -38.035156 49.703125 -36.453125 C 49.503906 -34.878906 48.957031 -33.066406 48.0625 -31.015625 C 47.175781 -28.960938 45.632812 -26.738281 43.4375 -24.34375 C 42.070312 -22.832031 40.289062 -21.410156 38.09375 -20.078125 C 35.90625 -18.742188 33.03125 -18.078125 29.46875 -18.078125 C 28.988281 -18.078125 28.472656 -18.09375 27.921875 -18.125 C 27.378906 -18.15625 26.835938 -18.171875 26.296875 -18.171875 L 26.09375 -18.171875 C 25.613281 -18.171875 25.046875 -18.117188 24.390625 -18.015625 C 23.742188 -17.921875 23.160156 -17.597656 22.640625 -17.046875 C 22.128906 -16.503906 21.875 -15.582031 21.875 -14.28125 C 21.875 -13.59375 21.90625 -12.988281 21.96875 -12.46875 C 22.039062 -11.957031 22.078125 -11.363281 22.078125 -10.6875 C 22.148438 -10 22.164062 -9.347656 22.125 -8.734375 C 22.09375 -8.117188 22.113281 -7.429688 22.1875 -6.671875 C 22.1875 -6.128906 22.21875 -5.632812 22.28125 -5.1875 C 22.351562 -4.738281 22.390625 -4.242188 22.390625 -3.703125 C 22.390625 -3.015625 22.25 -2.257812 21.96875 -1.4375 C 21.695312 -0.613281 20.742188 -0.203125 19.109375 -0.203125 C 17.867188 -0.203125 16.769531 -0.234375 15.8125 -0.296875 C 14.851562 -0.367188 13.789062 -0.40625 12.625 -0.40625 C 11.53125 -0.40625 10.535156 -0.335938 9.640625 -0.203125 C 8.753906 -0.0664062 7.734375 0 6.578125 0 C 5.546875 0 4.769531 -0.253906 4.25 -0.765625 C 3.738281 -1.285156 3.484375 -2.332031 3.484375 -3.90625 C 3.484375 -4.445312 3.5 -4.972656 3.53125 -5.484375 C 3.570312 -6.003906 3.628906 -6.503906 3.703125 -6.984375 C 3.703125 -7.597656 3.664062 -8.144531 3.59375 -8.625 C 3.519531 -9.101562 3.519531 -9.617188 3.59375 -10.171875 C 3.664062 -11.054688 3.75 -11.84375 3.84375 -12.53125 C 3.945312 -13.21875 4 -14.003906 4 -14.890625 C 4 -16.328125 3.945312 -17.78125 3.84375 -19.25 C 3.75 -20.726562 3.703125 -22.1875 3.703125 -23.625 C 3.703125 -25.601562 3.734375 -27.363281 3.796875 -28.90625 C 3.867188 -30.445312 3.90625 -32.175781 3.90625 -34.09375 C 3.90625 -35.664062 3.882812 -37.238281 3.84375 -38.8125 C 3.8125 -40.394531 3.796875 -41.9375 3.796875 -43.4375 C 3.796875 -46.039062 3.828125 -48.40625 3.890625 -50.53125 C 3.960938 -52.65625 3.96875 -55.050781 3.90625 -57.71875 C 3.832031 -59.632812 3.757812 -61.34375 3.6875 -62.84375 C 3.625 -64.351562 3.59375 -66.066406 3.59375 -67.984375 C 3.59375 -69.972656 4.140625 -71.289062 5.234375 -71.9375 C 6.328125 -72.59375 7.664062 -72.921875 9.25 -72.921875 C 9.925781 -72.921875 10.585938 -72.882812 11.234375 -72.8125 C 11.890625 -72.75 12.523438 -72.71875 13.140625 -72.71875 C 14.097656 -72.71875 15.039062 -72.75 15.96875 -72.8125 C 16.894531 -72.882812 17.800781 -72.921875 18.6875 -72.921875 C 19.300781 -72.921875 19.914062 -72.898438 20.53125 -72.859375 C 21.15625 -72.828125 21.773438 -72.8125 22.390625 -72.8125 C 23.273438 -72.75 24.128906 -72.75 24.953125 -72.8125 C 25.773438 -72.882812 26.632812 -72.921875 27.53125 -72.921875 C 32.113281 -73.054688 35.875 -72.421875 38.8125 -71.015625 C 41.757812 -69.609375 44.054688 -67.8125 45.703125 -65.625 C 46.660156 -64.320312 47.289062 -63.207031 47.59375 -62.28125 C 47.90625 -61.363281 48.164062 -60.628906 48.375 -60.078125 C 48.914062 -58.640625 49.441406 -57.113281 49.953125 -55.5 C 50.472656 -53.894531 50.734375 -51.625 50.734375 -48.6875 Z M 31.21875 -42.3125 C 31.21875 -42.925781 31.203125 -43.457031 31.171875 -43.90625 C 31.140625 -44.351562 31.125 -44.882812 31.125 -45.5 C 31.125 -46.113281 31.140625 -46.660156 31.171875 -47.140625 C 31.203125 -47.617188 31.21875 -48.164062 31.21875 -48.78125 C 31.21875 -50.976562 30.722656 -52.675781 29.734375 -53.875 C 28.742188 -55.070312 27.5625 -55.671875 26.1875 -55.671875 L 25.78125 -55.671875 C 25.164062 -55.671875 24.582031 -55.460938 24.03125 -55.046875 C 23.34375 -54.566406 22.84375 -53.78125 22.53125 -52.6875 C 22.226562 -51.59375 22.078125 -50.328125 22.078125 -48.890625 L 22.078125 -42.421875 C 22.078125 -40.503906 22.554688 -38.992188 23.515625 -37.890625 C 24.472656 -36.796875 25.5 -36.285156 26.59375 -36.359375 C 27.351562 -36.359375 28.175781 -36.703125 29.0625 -37.390625 C 29.75 -37.929688 30.28125 -38.5625 30.65625 -39.28125 C 31.03125 -40 31.21875 -41.007812 31.21875 -42.3125 Z M 31.21875 -42.3125 "/></g></g></g><g fill="#ff3131" fill-opacity="1"><g transform="translate(288.288906, 111.626125)"><g><path d="M 20.4375 -4.203125 C 20.4375 -2.765625 20.25 -1.703125 19.875 -1.015625 C 19.5 -0.335938 18.796875 0 17.765625 0 L 15.921875 0 C 14.960938 0 14.070312 -0.015625 13.25 -0.046875 C 12.425781 -0.0859375 11.535156 -0.109375 10.578125 -0.109375 C 9.828125 -0.109375 9.140625 -0.0859375 8.515625 -0.046875 C 7.898438 -0.015625 7.21875 0 6.46875 0 C 5.582031 0 4.796875 -0.238281 4.109375 -0.71875 C 3.421875 -1.195312 3.078125 -1.953125 3.078125 -2.984375 C 3.078125 -4.617188 3.109375 -6.101562 3.171875 -7.4375 C 3.242188 -8.78125 3.28125 -10.269531 3.28125 -11.90625 C 3.28125 -13.414062 3.265625 -14.753906 3.234375 -15.921875 C 3.203125 -17.085938 3.1875 -18.421875 3.1875 -19.921875 C 3.113281 -21.429688 3.109375 -22.800781 3.171875 -24.03125 C 3.242188 -25.257812 3.28125 -26.628906 3.28125 -28.140625 C 3.28125 -30.191406 3.226562 -32.039062 3.125 -33.6875 C 3.03125 -35.332031 2.984375 -37.179688 2.984375 -39.234375 C 2.984375 -40.328125 3 -41.382812 3.03125 -42.40625 C 3.0625 -43.4375 3.078125 -44.46875 3.078125 -45.5 C 3.078125 -46.59375 3.0625 -47.648438 3.03125 -48.671875 C 3 -49.703125 2.984375 -50.734375 2.984375 -51.765625 L 2.984375 -52.484375 C 2.984375 -54.265625 3.03125 -55.890625 3.125 -57.359375 C 3.226562 -58.828125 3.28125 -60.488281 3.28125 -62.34375 C 3.28125 -63.363281 3.226562 -64.285156 3.125 -65.109375 C 3.03125 -65.929688 2.984375 -66.859375 2.984375 -67.890625 C 2.984375 -69.460938 3.148438 -70.625 3.484375 -71.375 C 3.828125 -72.132812 4.957031 -72.515625 6.875 -72.515625 L 10.375 -72.515625 C 11.601562 -72.515625 12.710938 -72.53125 13.703125 -72.5625 C 14.703125 -72.59375 15.816406 -72.609375 17.046875 -72.609375 C 18.484375 -72.609375 19.390625 -72.210938 19.765625 -71.421875 C 20.140625 -70.640625 20.328125 -69.972656 20.328125 -69.421875 C 20.328125 -68.117188 20.257812 -66.9375 20.125 -65.875 C 19.988281 -64.820312 19.921875 -63.609375 19.921875 -62.234375 C 19.921875 -60.796875 19.9375 -59.492188 19.96875 -58.328125 C 20.007812 -57.171875 20.03125 -55.875 20.03125 -54.4375 C 20.03125 -53.75 20.007812 -53.128906 19.96875 -52.578125 C 19.9375 -52.035156 19.921875 -51.421875 19.921875 -50.734375 L 19.921875 -35.015625 C 19.921875 -33.097656 19.972656 -31.332031 20.078125 -29.71875 C 20.179688 -28.113281 20.234375 -26.320312 20.234375 -24.34375 L 20.234375 -19.71875 C 20.234375 -18.207031 20.210938 -16.800781 20.171875 -15.5 C 20.140625 -14.207031 20.125 -12.769531 20.125 -11.1875 C 20.125 -9.894531 20.175781 -8.734375 20.28125 -7.703125 C 20.382812 -6.671875 20.4375 -5.503906 20.4375 -4.203125 Z M 20.4375 -4.203125 "/></g></g></g><g fill="#ff3131" fill-opacity="1"><g transform="translate(311.804888, 111.626125)"><g><path d="M 43.75 -53.609375 C 43.75 -52.304688 43.695312 -51.175781 43.59375 -50.21875 C 43.488281 -49.257812 43.4375 -48.164062 43.4375 -46.9375 L 43.4375 -46.421875 C 43.4375 -45.328125 43.472656 -44.226562 43.546875 -43.125 C 43.617188 -42.03125 43.65625 -40.9375 43.65625 -39.84375 C 43.65625 -38.539062 43.617188 -37.359375 43.546875 -36.296875 C 43.472656 -35.242188 43.4375 -34.03125 43.4375 -32.65625 C 43.4375 -31.632812 43.453125 -30.710938 43.484375 -29.890625 C 43.523438 -29.066406 43.546875 -28.140625 43.546875 -27.109375 C 43.617188 -25.398438 43.582031 -23.859375 43.4375 -22.484375 C 43.300781 -21.117188 43.234375 -19.582031 43.234375 -17.875 C 43.234375 -16.78125 43.265625 -15.820312 43.328125 -15 C 43.398438 -14.175781 43.4375 -13.21875 43.4375 -12.125 C 43.4375 -11.5 43.421875 -10.878906 43.390625 -10.265625 C 43.359375 -9.648438 43.34375 -9.035156 43.34375 -8.421875 C 43.34375 -7.328125 43.375 -6.347656 43.4375 -5.484375 C 43.507812 -4.628906 43.546875 -3.65625 43.546875 -2.5625 C 43.546875 -1.882812 43.375 -1.304688 43.03125 -0.828125 C 42.6875 -0.347656 41.898438 -0.109375 40.671875 -0.109375 C 39.578125 -0.109375 38.617188 -0.140625 37.796875 -0.203125 C 36.972656 -0.273438 36.046875 -0.3125 35.015625 -0.3125 C 33.921875 -0.3125 32.960938 -0.257812 32.140625 -0.15625 C 31.316406 -0.0507812 30.359375 0 29.265625 0 C 28.242188 0 27.734375 -0.269531 27.734375 -0.8125 C 27.734375 -1.363281 27.628906 -1.773438 27.421875 -2.046875 C 27.347656 -2.191406 27.296875 -2.3125 27.265625 -2.40625 C 27.234375 -2.507812 27.148438 -2.597656 27.015625 -2.671875 C 27.015625 -2.878906 26.804688 -2.984375 26.390625 -2.984375 C 26.117188 -2.984375 25.570312 -2.691406 24.75 -2.109375 C 23.925781 -1.523438 23.035156 -1.023438 22.078125 -0.609375 C 21.191406 -0.273438 20.179688 -0.0234375 19.046875 0.140625 C 17.921875 0.316406 16.945312 0.421875 16.125 0.453125 C 15.300781 0.492188 14.820312 0.515625 14.6875 0.515625 C 13.863281 0.515625 12.816406 0.394531 11.546875 0.15625 C 10.285156 -0.0820312 9.003906 -0.5625 7.703125 -1.28125 C 6.398438 -2 5.320312 -3.109375 4.46875 -4.609375 C 3.613281 -6.117188 3.1875 -8.144531 3.1875 -10.6875 C 3.1875 -11.5 3.253906 -12.25 3.390625 -12.9375 C 3.523438 -13.625 3.59375 -14.378906 3.59375 -15.203125 C 3.59375 -17.179688 3.523438 -18.972656 3.390625 -20.578125 C 3.253906 -22.191406 3.1875 -23.957031 3.1875 -25.875 C 3.1875 -28.476562 3.269531 -30.789062 3.4375 -32.8125 C 3.613281 -34.832031 3.703125 -37.109375 3.703125 -39.640625 C 3.703125 -41.972656 3.613281 -44.046875 3.4375 -45.859375 C 3.269531 -47.671875 3.1875 -49.707031 3.1875 -51.96875 C 3.1875 -52.238281 3.234375 -52.71875 3.328125 -53.40625 C 3.429688 -54.09375 3.738281 -54.742188 4.25 -55.359375 C 4.769531 -55.972656 5.644531 -56.28125 6.875 -56.28125 C 7.5625 -56.28125 8.195312 -56.242188 8.78125 -56.171875 C 9.363281 -56.109375 10 -56.078125 10.6875 -56.078125 C 11.570312 -56.078125 12.335938 -56.054688 12.984375 -56.015625 C 13.640625 -55.984375 14.410156 -55.96875 15.296875 -55.96875 C 15.773438 -55.96875 16.203125 -56 16.578125 -56.0625 C 16.960938 -56.132812 17.394531 -56.171875 17.875 -56.171875 C 18.832031 -56.171875 19.460938 -55.894531 19.765625 -55.34375 C 20.078125 -54.800781 20.25 -54.253906 20.28125 -53.703125 C 20.3125 -53.160156 20.328125 -52.859375 20.328125 -52.796875 C 20.328125 -51.828125 20.273438 -50.945312 20.171875 -50.15625 C 20.078125 -49.375 20.03125 -48.503906 20.03125 -47.546875 C 20.03125 -46.316406 20.078125 -45.203125 20.171875 -44.203125 C 20.273438 -43.210938 20.328125 -42.101562 20.328125 -40.875 C 20.328125 -39.84375 20.289062 -38.914062 20.21875 -38.09375 C 20.15625 -37.28125 20.09375 -36.328125 20.03125 -35.234375 C 19.957031 -33.859375 19.9375 -32.601562 19.96875 -31.46875 C 20.007812 -30.34375 19.992188 -29.0625 19.921875 -27.625 C 19.921875 -26.320312 19.972656 -25.140625 20.078125 -24.078125 C 20.179688 -23.015625 20.195312 -21.835938 20.125 -20.546875 C 20.125 -19.859375 20.085938 -19.238281 20.015625 -18.6875 C 19.953125 -18.144531 19.921875 -17.53125 19.921875 -16.84375 C 19.921875 -15.675781 20.265625 -14.851562 20.953125 -14.375 C 21.640625 -13.894531 22.222656 -13.65625 22.703125 -13.65625 C 24.066406 -13.65625 25.003906 -14.375 25.515625 -15.8125 C 26.035156 -17.25 26.296875 -18.925781 26.296875 -20.84375 C 26.296875 -21.601562 26.273438 -22.269531 26.234375 -22.84375 C 26.203125 -23.425781 26.1875 -24.0625 26.1875 -24.75 C 26.1875 -26.257812 26.253906 -27.59375 26.390625 -28.75 C 26.523438 -29.914062 26.59375 -31.21875 26.59375 -32.65625 C 26.59375 -33.957031 26.554688 -35.117188 26.484375 -36.140625 C 26.421875 -37.171875 26.359375 -38.335938 26.296875 -39.640625 C 26.296875 -40.804688 26.34375 -41.882812 26.4375 -42.875 C 26.539062 -43.875 26.5625 -44.953125 26.5 -46.109375 C 26.5 -47.273438 26.410156 -48.316406 26.234375 -49.234375 C 26.066406 -50.160156 25.984375 -51.175781 25.984375 -52.28125 C 25.984375 -54.125 26.425781 -55.234375 27.3125 -55.609375 C 28.207031 -55.984375 29.335938 -56.171875 30.703125 -56.171875 C 31.460938 -56.171875 32.128906 -56.132812 32.703125 -56.0625 C 33.285156 -56 33.921875 -55.96875 34.609375 -55.96875 C 35.640625 -55.96875 36.5625 -55.984375 37.375 -56.015625 C 38.195312 -56.054688 39.125 -56.078125 40.15625 -56.078125 L 40.5625 -56.078125 C 40.769531 -56.078125 41.128906 -56.078125 41.640625 -56.078125 C 42.160156 -56.078125 42.640625 -55.90625 43.078125 -55.5625 C 43.523438 -55.21875 43.75 -54.566406 43.75 -53.609375 Z M 43.75 -53.609375 "/></g></g></g><g fill="#ff3131" fill-opacity="1"><g transform="translate(358.836852, 111.626125)"><g><path d="M 67.265625 -17.671875 C 67.265625 -16.234375 67.175781 -14.929688 67 -13.765625 C 66.832031 -12.597656 66.75 -11.296875 66.75 -9.859375 C 66.75 -8.972656 66.800781 -8.203125 66.90625 -7.546875 C 67.007812 -6.898438 67.0625 -6.164062 67.0625 -5.34375 C 67.0625 -4.863281 67.023438 -4.347656 66.953125 -3.796875 C 66.890625 -3.253906 66.859375 -2.945312 66.859375 -2.875 C 66.648438 -1.988281 66.578125 -1.523438 66.640625 -1.484375 C 66.710938 -1.453125 66.476562 -1.09375 65.9375 -0.40625 C 65.800781 -0.207031 65.539062 -0.109375 65.15625 -0.109375 C 64.78125 -0.109375 64.523438 -0.109375 64.390625 -0.109375 C 63.503906 -0.109375 62.703125 -0.125 61.984375 -0.15625 C 61.265625 -0.1875 60.425781 -0.203125 59.46875 -0.203125 C 58.226562 -0.203125 57.128906 -0.164062 56.171875 -0.09375 C 55.210938 -0.03125 54.117188 0 52.890625 0 C 52.066406 0 51.3125 -0.203125 50.625 -0.609375 C 49.945312 -1.023438 49.609375 -1.984375 49.609375 -3.484375 C 49.609375 -4.378906 49.640625 -5.164062 49.703125 -5.84375 C 49.773438 -6.53125 49.84375 -7.320312 49.90625 -8.21875 C 49.976562 -9.445312 49.976562 -10.554688 49.90625 -11.546875 C 49.84375 -12.546875 49.84375 -13.660156 49.90625 -14.890625 C 49.90625 -15.785156 49.941406 -16.59375 50.015625 -17.3125 C 50.085938 -18.03125 50.125 -18.832031 50.125 -19.71875 C 50.125 -21.632812 50.140625 -23.34375 50.171875 -24.84375 C 50.203125 -26.351562 50.21875 -28.066406 50.21875 -29.984375 C 50.21875 -30.265625 50.21875 -30.96875 50.21875 -32.09375 C 50.21875 -33.226562 50.179688 -34.375 50.109375 -35.53125 C 50.046875 -36.695312 49.945312 -37.382812 49.8125 -37.59375 C 49.539062 -38.070312 49.25 -38.53125 48.9375 -38.96875 C 48.625 -39.414062 47.988281 -39.640625 47.03125 -39.640625 C 46.351562 -39.640625 45.820312 -39.46875 45.4375 -39.125 C 45.0625 -38.78125 44.773438 -38.441406 44.578125 -38.109375 C 44.441406 -37.898438 44.320312 -37.226562 44.21875 -36.09375 C 44.113281 -34.96875 44.023438 -33.6875 43.953125 -32.25 C 43.890625 -30.8125 43.835938 -29.546875 43.796875 -28.453125 C 43.765625 -27.359375 43.75 -26.707031 43.75 -26.5 C 43.75 -24.71875 43.78125 -23.109375 43.84375 -21.671875 C 43.914062 -20.234375 43.882812 -18.625 43.75 -16.84375 C 43.6875 -15.332031 43.617188 -13.992188 43.546875 -12.828125 C 43.472656 -11.671875 43.4375 -10.335938 43.4375 -8.828125 C 43.4375 -7.671875 43.472656 -6.609375 43.546875 -5.640625 C 43.617188 -4.679688 43.65625 -3.625 43.65625 -2.46875 C 43.65625 -1.707031 43.414062 -1.085938 42.9375 -0.609375 C 42.457031 -0.128906 41.835938 0.109375 41.078125 0.109375 C 40.253906 0.109375 39.515625 0.0546875 38.859375 -0.046875 C 38.210938 -0.148438 37.515625 -0.203125 36.765625 -0.203125 C 35.265625 -0.203125 33.929688 -0.164062 32.765625 -0.09375 C 31.597656 -0.03125 30.296875 0 28.859375 0 C 28.035156 0 27.453125 -0.21875 27.109375 -0.65625 C 26.765625 -1.101562 26.554688 -1.582031 26.484375 -2.09375 C 26.421875 -2.613281 26.390625 -2.910156 26.390625 -2.984375 C 26.390625 -4.554688 26.421875 -5.972656 26.484375 -7.234375 C 26.554688 -8.503906 26.59375 -9.894531 26.59375 -11.40625 C 26.59375 -12.769531 26.644531 -14 26.75 -15.09375 C 26.851562 -16.1875 26.875 -17.382812 26.8125 -18.6875 C 26.8125 -19.375 26.773438 -20.039062 26.703125 -20.6875 C 26.628906 -21.34375 26.59375 -21.976562 26.59375 -22.59375 C 26.59375 -23 26.609375 -23.375 26.640625 -23.71875 C 26.679688 -24.0625 26.703125 -24.472656 26.703125 -24.953125 C 26.703125 -26.117188 26.679688 -27.160156 26.640625 -28.078125 C 26.609375 -29.003906 26.59375 -30.019531 26.59375 -31.125 C 26.59375 -32.144531 26.609375 -33.066406 26.640625 -33.890625 C 26.679688 -34.710938 26.664062 -35.296875 26.59375 -35.640625 C 26.53125 -35.847656 26.476562 -36.207031 26.4375 -36.71875 C 26.40625 -37.226562 26.320312 -37.585938 26.1875 -37.796875 C 25.976562 -38.140625 25.671875 -38.550781 25.265625 -39.03125 C 24.859375 -39.507812 24.242188 -39.75 23.421875 -39.75 C 22.390625 -39.75 21.5 -39.164062 20.75 -38 C 20.613281 -37.789062 20.472656 -37.070312 20.328125 -35.84375 C 20.191406 -34.613281 20.109375 -33.398438 20.078125 -32.203125 C 20.046875 -31.003906 20.03125 -30.265625 20.03125 -29.984375 C 20.03125 -28.484375 20.078125 -27.113281 20.171875 -25.875 C 20.273438 -24.644531 20.328125 -23.242188 20.328125 -21.671875 C 20.328125 -19.753906 20.289062 -18.023438 20.21875 -16.484375 C 20.15625 -14.941406 20.125 -13.175781 20.125 -11.1875 C 20.125 -9.820312 20.15625 -8.554688 20.21875 -7.390625 C 20.289062 -6.234375 20.328125 -4.96875 20.328125 -3.59375 C 20.328125 -2.289062 20.101562 -1.382812 19.65625 -0.875 C 19.21875 -0.363281 18.347656 -0.109375 17.046875 -0.109375 L 14.078125 -0.109375 C 12.628906 -0.109375 11.320312 -0.0703125 10.15625 0 C 9 0.0703125 7.703125 0.109375 6.265625 0.109375 C 5.578125 0.109375 4.925781 -0.046875 4.3125 -0.359375 C 3.695312 -0.671875 3.390625 -1.546875 3.390625 -2.984375 C 3.390625 -4.140625 3.421875 -5.195312 3.484375 -6.15625 C 3.554688 -7.113281 3.59375 -8.210938 3.59375 -9.453125 C 3.59375 -10.609375 3.539062 -11.785156 3.4375 -12.984375 C 3.332031 -14.191406 3.28125 -15.375 3.28125 -16.53125 C 3.21875 -17.90625 3.234375 -19.273438 3.328125 -20.640625 C 3.429688 -22.015625 3.484375 -23.351562 3.484375 -24.65625 C 3.554688 -26.84375 3.523438 -28.828125 3.390625 -30.609375 C 3.253906 -32.390625 3.21875 -34.375 3.28125 -36.5625 C 3.28125 -38.269531 3.3125 -39.804688 3.375 -41.171875 C 3.445312 -42.546875 3.484375 -44.09375 3.484375 -45.8125 C 3.484375 -46.96875 3.46875 -48.007812 3.4375 -48.9375 C 3.40625 -49.863281 3.390625 -50.875 3.390625 -51.96875 L 3.390625 -52.28125 C 3.390625 -53.78125 3.660156 -54.800781 4.203125 -55.34375 C 4.753906 -55.894531 5.390625 -56.207031 6.109375 -56.28125 C 6.828125 -56.351562 7.460938 -56.390625 8.015625 -56.390625 C 9.035156 -56.390625 9.972656 -56.351562 10.828125 -56.28125 C 11.691406 -56.207031 12.671875 -56.207031 13.765625 -56.28125 C 14.515625 -56.351562 15.210938 -56.4375 15.859375 -56.53125 C 16.515625 -56.632812 17.21875 -56.6875 17.96875 -56.6875 C 18.726562 -56.6875 19.226562 -56.597656 19.46875 -56.421875 C 19.707031 -56.253906 20.066406 -55.96875 20.546875 -55.5625 C 20.679688 -55.488281 20.75 -55.382812 20.75 -55.25 C 20.75 -55.113281 20.78125 -54.976562 20.84375 -54.84375 C 20.976562 -54.769531 21.097656 -54.53125 21.203125 -54.125 C 21.304688 -53.71875 21.492188 -53.515625 21.765625 -53.515625 C 21.972656 -53.441406 22.265625 -53.609375 22.640625 -54.015625 C 23.015625 -54.429688 23.273438 -54.671875 23.421875 -54.734375 C 23.960938 -55.078125 24.316406 -55.316406 24.484375 -55.453125 C 24.660156 -55.597656 25.160156 -55.835938 25.984375 -56.171875 C 27.691406 -56.929688 29.382812 -57.222656 31.0625 -57.046875 C 32.738281 -56.878906 34.226562 -56.554688 35.53125 -56.078125 C 36.832031 -55.597656 37.722656 -55.222656 38.203125 -54.953125 C 39.234375 -54.398438 40.003906 -53.882812 40.515625 -53.40625 C 41.023438 -52.925781 41.554688 -52.722656 42.109375 -52.796875 C 42.585938 -52.796875 43.082031 -53.015625 43.59375 -53.453125 C 44.113281 -53.898438 44.40625 -54.125 44.46875 -54.125 C 44.882812 -54.332031 45.242188 -54.535156 45.546875 -54.734375 C 45.859375 -54.941406 46.21875 -55.113281 46.625 -55.25 C 47.238281 -55.59375 48.265625 -55.988281 49.703125 -56.4375 C 51.140625 -56.882812 52.75 -57.035156 54.53125 -56.890625 C 54.945312 -56.828125 55.90625 -56.65625 57.40625 -56.375 C 58.914062 -56.101562 60.425781 -55.285156 61.9375 -53.921875 C 63.988281 -52.140625 65.285156 -50.171875 65.828125 -48.015625 C 66.378906 -45.859375 66.757812 -43.851562 66.96875 -42 C 67.03125 -41.25 67.09375 -40.546875 67.15625 -39.890625 C 67.226562 -39.242188 67.265625 -38.546875 67.265625 -37.796875 C 67.335938 -36.703125 67.304688 -35.707031 67.171875 -34.8125 C 67.035156 -33.925781 66.96875 -32.898438 66.96875 -31.734375 C 66.96875 -30.847656 67.015625 -30.078125 67.109375 -29.421875 C 67.210938 -28.773438 67.265625 -28.003906 67.265625 -27.109375 C 67.265625 -26.285156 67.226562 -25.53125 67.15625 -24.84375 C 67.09375 -24.164062 67.097656 -23.414062 67.171875 -22.59375 C 67.171875 -22.113281 67.1875 -21.664062 67.21875 -21.25 C 67.25 -20.84375 67.265625 -20.367188 67.265625 -19.828125 Z M 67.265625 -17.671875 "/></g></g></g><g fill="#ff3131" fill-opacity="1"><g transform="translate(429.487468, 111.626125)"><g><path d="M 44.671875 -31.421875 C 44.671875 -30.328125 44.617188 -29.332031 44.515625 -28.4375 C 44.421875 -27.550781 44.375 -26.5625 44.375 -25.46875 C 44.375 -23.625 44.21875 -21.503906 43.90625 -19.109375 C 43.59375 -16.710938 42.988281 -14.265625 42.09375 -11.765625 C 41.207031 -9.265625 39.941406 -7.003906 38.296875 -4.984375 C 36.660156 -2.960938 34.539062 -1.4375 31.9375 -0.40625 C 30.84375 0 29.96875 0.253906 29.3125 0.359375 C 28.664062 0.460938 28.101562 0.515625 27.625 0.515625 C 26.320312 0.515625 25.273438 0.394531 24.484375 0.15625 C 23.703125 -0.0820312 23.003906 -0.304688 22.390625 -0.515625 C 22.179688 -0.648438 21.628906 -0.957031 20.734375 -1.4375 C 19.847656 -1.914062 19.304688 -2.15625 19.109375 -2.15625 C 18.628906 -2.15625 18.390625 -1.8125 18.390625 -1.125 C 18.390625 -0.851562 18.300781 -0.578125 18.125 -0.296875 C 17.957031 -0.0234375 17.566406 0.109375 16.953125 0.109375 C 16.609375 0.109375 16.265625 0.0859375 15.921875 0.046875 C 15.578125 0.015625 15.234375 0 14.890625 0 L 11.1875 0 C 10.300781 0 9.515625 0.015625 8.828125 0.046875 C 8.148438 0.0859375 7.363281 0.109375 6.46875 0.109375 C 5.375 0.109375 4.535156 -0.113281 3.953125 -0.5625 C 3.367188 -1.007812 3.078125 -1.847656 3.078125 -3.078125 C 3.078125 -4.316406 3.128906 -5.429688 3.234375 -6.421875 C 3.335938 -7.410156 3.390625 -8.519531 3.390625 -9.75 C 3.390625 -11.53125 3.351562 -13.15625 3.28125 -14.625 C 3.21875 -16.101562 3.1875 -17.734375 3.1875 -19.515625 C 3.1875 -21.566406 3.21875 -23.414062 3.28125 -25.0625 C 3.351562 -26.707031 3.351562 -28.585938 3.28125 -30.703125 C 3.28125 -32.285156 3.242188 -33.742188 3.171875 -35.078125 C 3.109375 -36.410156 3.078125 -37.863281 3.078125 -39.4375 C 3.078125 -41.488281 3.109375 -43.316406 3.171875 -44.921875 C 3.242188 -46.535156 3.28125 -48.367188 3.28125 -50.421875 C 3.28125 -52.335938 3.210938 -54.050781 3.078125 -55.5625 C 2.941406 -57.070312 2.910156 -58.785156 2.984375 -60.703125 C 2.984375 -61.585938 3.015625 -62.441406 3.078125 -63.265625 C 3.148438 -64.085938 3.1875 -64.910156 3.1875 -65.734375 C 3.1875 -66.273438 3.164062 -66.769531 3.125 -67.21875 C 3.09375 -67.664062 3.078125 -68.128906 3.078125 -68.609375 C 3.078125 -69.972656 3.332031 -70.925781 3.84375 -71.46875 C 4.363281 -72.019531 4.960938 -72.332031 5.640625 -72.40625 C 6.328125 -72.476562 6.878906 -72.515625 7.296875 -72.515625 L 16.84375 -72.515625 C 17.875 -72.515625 18.609375 -72.273438 19.046875 -71.796875 C 19.492188 -71.316406 19.75 -70.800781 19.8125 -70.25 C 19.882812 -69.695312 19.921875 -69.285156 19.921875 -69.015625 C 19.921875 -68.191406 19.882812 -67.453125 19.8125 -66.796875 C 19.75 -66.148438 19.71875 -65.382812 19.71875 -64.5 C 19.71875 -64.425781 19.734375 -63.960938 19.765625 -63.109375 C 19.804688 -62.253906 19.84375 -61.296875 19.875 -60.234375 C 19.90625 -59.171875 19.9375 -58.226562 19.96875 -57.40625 C 20.007812 -56.582031 20.03125 -56.140625 20.03125 -56.078125 C 20.164062 -55.734375 20.316406 -55.539062 20.484375 -55.5 C 20.660156 -55.46875 20.78125 -55.453125 20.84375 -55.453125 C 20.976562 -55.453125 21.25 -55.554688 21.65625 -55.765625 C 22.070312 -55.972656 22.488281 -56.144531 22.90625 -56.28125 C 23.175781 -56.351562 23.820312 -56.523438 24.84375 -56.796875 C 25.875 -57.066406 26.90625 -57.203125 27.9375 -57.203125 C 29.582031 -57.203125 31.53125 -56.773438 33.78125 -55.921875 C 36.039062 -55.066406 37.925781 -53.75 39.4375 -51.96875 C 40.125 -51.21875 40.757812 -50.15625 41.34375 -48.78125 C 41.925781 -47.414062 42.457031 -46.0625 42.9375 -44.71875 C 43.414062 -43.382812 43.722656 -42.304688 43.859375 -41.484375 C 43.992188 -40.867188 44.0625 -40.285156 44.0625 -39.734375 C 44.0625 -39.191406 44.09375 -38.578125 44.15625 -37.890625 C 44.300781 -37.003906 44.421875 -36.148438 44.515625 -35.328125 C 44.617188 -34.503906 44.671875 -33.203125 44.671875 -31.421875 Z M 27.734375 -27.828125 C 27.734375 -30.085938 27.628906 -32.28125 27.421875 -34.40625 C 27.210938 -36.53125 26.867188 -37.898438 26.390625 -38.515625 C 26.117188 -38.859375 25.796875 -39.195312 25.421875 -39.53125 C 25.046875 -39.875 24.476562 -40.046875 23.71875 -40.046875 C 23.519531 -40.046875 23.382812 -40.015625 23.3125 -39.953125 C 22.90625 -39.953125 22.425781 -39.742188 21.875 -39.328125 C 20.988281 -38.578125 20.390625 -36.96875 20.078125 -34.5 C 19.765625 -32.039062 19.609375 -29.441406 19.609375 -26.703125 C 19.609375 -25.191406 19.726562 -23.703125 19.96875 -22.234375 C 20.207031 -20.765625 20.617188 -19.550781 21.203125 -18.59375 C 21.785156 -17.632812 22.59375 -17.15625 23.625 -17.15625 C 24.644531 -17.15625 25.429688 -17.632812 25.984375 -18.59375 C 26.535156 -19.550781 26.945312 -20.695312 27.21875 -22.03125 C 27.488281 -23.363281 27.640625 -24.578125 27.671875 -25.671875 C 27.710938 -26.765625 27.734375 -27.484375 27.734375 -27.828125 Z M 27.734375 -27.828125 "/></g></g></g><g fill="#ff3131" fill-opacity="1"><g transform="translate(476.519433, 111.626125)"><g><path d="M 20.234375 -65.109375 C 20.234375 -62.785156 19.769531 -61.453125 18.84375 -61.109375 C 17.914062 -60.765625 16.90625 -60.554688 15.8125 -60.484375 C 15.332031 -60.421875 14.867188 -60.40625 14.421875 -60.4375 C 13.984375 -60.46875 13.488281 -60.484375 12.9375 -60.484375 L 6.578125 -60.484375 C 5.890625 -60.484375 5.148438 -60.722656 4.359375 -61.203125 C 3.578125 -61.691406 3.1875 -62.722656 3.1875 -64.296875 L 3.1875 -65.21875 C 3.1875 -65.757812 3.164062 -66.269531 3.125 -66.75 C 3.09375 -67.226562 3.078125 -67.78125 3.078125 -68.40625 C 3.078125 -70.382812 3.46875 -71.613281 4.25 -72.09375 C 5.039062 -72.570312 5.988281 -72.8125 7.09375 -72.8125 C 8.320312 -72.8125 9.414062 -72.773438 10.375 -72.703125 C 11.332031 -72.640625 12.425781 -72.609375 13.65625 -72.609375 C 14.269531 -72.609375 14.800781 -72.640625 15.25 -72.703125 C 15.695312 -72.773438 16.191406 -72.8125 16.734375 -72.8125 C 16.878906 -72.8125 17.273438 -72.742188 17.921875 -72.609375 C 18.566406 -72.472656 19.128906 -72.097656 19.609375 -71.484375 C 19.816406 -71.273438 19.972656 -70.691406 20.078125 -69.734375 C 20.179688 -68.773438 20.234375 -67.832031 20.234375 -66.90625 C 20.234375 -65.988281 20.234375 -65.390625 20.234375 -65.109375 Z M 20.328125 -52.6875 C 20.328125 -51.519531 20.273438 -50.457031 20.171875 -49.5 C 20.078125 -48.539062 20.03125 -47.476562 20.03125 -46.3125 C 20.03125 -44.8125 20.046875 -43.425781 20.078125 -42.15625 C 20.109375 -40.894531 20.125 -39.472656 20.125 -37.890625 C 20.125 -36.390625 20.109375 -35.019531 20.078125 -33.78125 C 20.046875 -32.550781 20.03125 -31.148438 20.03125 -29.578125 C 20.03125 -28.484375 20.0625 -27.523438 20.125 -26.703125 C 20.195312 -25.878906 20.234375 -24.957031 20.234375 -23.9375 L 20.234375 -13.859375 C 20.234375 -13.859375 20.234375 -13.257812 20.234375 -12.0625 C 20.234375 -10.863281 20.210938 -9.476562 20.171875 -7.90625 C 20.140625 -6.332031 20.125 -4.945312 20.125 -3.75 C 20.125 -2.550781 20.125 -1.953125 20.125 -1.953125 C 20.0625 -1.742188 20.03125 -1.585938 20.03125 -1.484375 C 20.03125 -1.378906 19.859375 -1.160156 19.515625 -0.828125 C 19.242188 -0.484375 18.796875 -0.273438 18.171875 -0.203125 C 17.554688 -0.140625 16.804688 -0.109375 15.921875 -0.109375 C 15.023438 -0.109375 14.179688 -0.140625 13.390625 -0.203125 C 12.609375 -0.273438 11.738281 -0.3125 10.78125 -0.3125 C 9.957031 -0.3125 9.203125 -0.257812 8.515625 -0.15625 C 7.835938 -0.0507812 7.085938 0 6.265625 0 C 4.554688 0 3.582031 -0.546875 3.34375 -1.640625 C 3.101562 -2.734375 2.984375 -3.796875 2.984375 -4.828125 L 2.984375 -5.140625 C 2.984375 -6.367188 3.015625 -7.492188 3.078125 -8.515625 C 3.148438 -9.546875 3.1875 -10.675781 3.1875 -11.90625 C 3.1875 -13.488281 3.148438 -14.910156 3.078125 -16.171875 C 3.015625 -17.441406 2.984375 -18.863281 2.984375 -20.4375 C 2.984375 -22.488281 3.015625 -24.335938 3.078125 -25.984375 C 3.148438 -27.628906 3.1875 -29.476562 3.1875 -31.53125 C 3.1875 -33.519531 3.132812 -35.316406 3.03125 -36.921875 C 2.925781 -38.523438 2.910156 -40.289062 2.984375 -42.21875 C 2.984375 -43.238281 3 -44.160156 3.03125 -44.984375 C 3.0625 -45.804688 3.078125 -46.695312 3.078125 -47.65625 C 3.078125 -48.476562 3.0625 -49.195312 3.03125 -49.8125 C 3 -50.425781 2.984375 -51.144531 2.984375 -51.96875 C 2.984375 -52.925781 3.015625 -53.710938 3.078125 -54.328125 C 3.148438 -54.941406 3.425781 -55.457031 3.90625 -55.875 C 4.445312 -56.414062 5.640625 -56.671875 7.484375 -56.640625 C 9.335938 -56.609375 11.222656 -56.625 13.140625 -56.6875 C 14.722656 -56.6875 16.0625 -56.6875 17.15625 -56.6875 C 18.25 -56.6875 19.066406 -56.378906 19.609375 -55.765625 C 20.085938 -55.148438 20.328125 -54.125 20.328125 -52.6875 Z M 20.328125 -52.6875 "/></g></g></g><g fill="#ff3131" fill-opacity="1"><g transform="translate(500.035442, 111.626125)"><g><path d="M 44.0625 -40.984375 C 44.0625 -39.953125 44.039062 -39.039062 44 -38.25 C 43.96875 -37.46875 43.953125 -36.5625 43.953125 -35.53125 C 43.953125 -34.375 43.96875 -33.3125 44 -32.34375 C 44.039062 -31.382812 44.023438 -30.328125 43.953125 -29.171875 C 43.953125 -28.078125 43.914062 -27.066406 43.84375 -26.140625 C 43.78125 -25.210938 43.75 -24.203125 43.75 -23.109375 C 43.75 -21.804688 43.78125 -20.609375 43.84375 -19.515625 C 43.914062 -18.421875 43.921875 -17.222656 43.859375 -15.921875 C 43.859375 -15.023438 43.820312 -14.234375 43.75 -13.546875 C 43.6875 -12.867188 43.65625 -12.082031 43.65625 -11.1875 C 43.65625 -10.300781 43.6875 -9.515625 43.75 -8.828125 C 43.820312 -8.148438 43.859375 -7.363281 43.859375 -6.46875 C 43.859375 -4.625 43.648438 -3.101562 43.234375 -1.90625 C 42.828125 -0.707031 41.90625 -0.109375 40.46875 -0.109375 C 39.644531 -0.109375 38.890625 -0.15625 38.203125 -0.25 C 37.515625 -0.351562 36.726562 -0.40625 35.84375 -0.40625 C 34.8125 -0.40625 33.867188 -0.351562 33.015625 -0.25 C 32.160156 -0.15625 31.1875 -0.109375 30.09375 -0.109375 C 29.613281 -0.109375 28.894531 -0.257812 27.9375 -0.5625 C 26.976562 -0.875 26.5 -1.816406 26.5 -3.390625 C 26.5 -5.035156 26.582031 -6.503906 26.75 -7.796875 C 26.925781 -9.097656 27.015625 -10.570312 27.015625 -12.21875 C 27.015625 -14.34375 26.960938 -16.207031 26.859375 -17.8125 C 26.753906 -19.425781 26.703125 -21.296875 26.703125 -23.421875 C 26.703125 -25.679688 26.785156 -27.71875 26.953125 -29.53125 C 27.128906 -31.34375 27.21875 -33.378906 27.21875 -35.640625 C 27.21875 -35.773438 27.21875 -36.203125 27.21875 -36.921875 C 27.21875 -37.640625 27.03125 -38.359375 26.65625 -39.078125 C 26.28125 -39.796875 25.441406 -40.191406 24.140625 -40.265625 C 22.703125 -40.328125 21.722656 -39.910156 21.203125 -39.015625 C 20.691406 -38.128906 20.4375 -37.117188 20.4375 -35.984375 C 20.4375 -34.859375 20.398438 -33.957031 20.328125 -33.28125 C 20.265625 -31.769531 20.195312 -30.378906 20.125 -29.109375 C 20.0625 -27.847656 20.03125 -26.429688 20.03125 -24.859375 C 20.03125 -23.960938 20.0625 -23.085938 20.125 -22.234375 C 20.195312 -21.378906 20.234375 -20.503906 20.234375 -19.609375 C 20.234375 -18.035156 20.179688 -16.460938 20.078125 -14.890625 C 19.972656 -13.316406 19.921875 -11.742188 19.921875 -10.171875 C 19.921875 -8.867188 19.972656 -7.71875 20.078125 -6.71875 C 20.179688 -5.726562 20.234375 -4.617188 20.234375 -3.390625 C 20.234375 -2.492188 20.0625 -1.703125 19.71875 -1.015625 C 19.375 -0.335938 18.65625 0 17.5625 0 C 16.332031 0 15.21875 -0.03125 14.21875 -0.09375 C 13.226562 -0.164062 12.117188 -0.203125 10.890625 -0.203125 C 9.992188 -0.203125 9.203125 -0.164062 8.515625 -0.09375 C 7.835938 -0.03125 7.050781 0 6.15625 0 C 5.132812 0 4.429688 -0.269531 4.046875 -0.8125 C 3.671875 -1.363281 3.445312 -1.945312 3.375 -2.5625 C 3.3125 -3.175781 3.28125 -3.554688 3.28125 -3.703125 C 3.28125 -5.003906 3.3125 -6.148438 3.375 -7.140625 C 3.445312 -8.128906 3.484375 -9.273438 3.484375 -10.578125 L 3.484375 -11.296875 C 3.484375 -13.078125 3.429688 -14.859375 3.328125 -16.640625 C 3.234375 -18.421875 3.1875 -20.164062 3.1875 -21.875 C 3.1875 -24.476562 3.269531 -26.820312 3.4375 -28.90625 C 3.613281 -31 3.703125 -33.3125 3.703125 -35.84375 L 3.703125 -43.859375 C 3.703125 -45.222656 3.648438 -46.414062 3.546875 -47.4375 C 3.441406 -48.46875 3.421875 -49.632812 3.484375 -50.9375 C 3.484375 -51.757812 3.519531 -52.613281 3.59375 -53.5 C 3.664062 -54.394531 3.957031 -55.148438 4.46875 -55.765625 C 4.976562 -56.378906 5.882812 -56.6875 7.1875 -56.6875 C 7.9375 -56.6875 8.617188 -56.648438 9.234375 -56.578125 C 9.859375 -56.515625 10.546875 -56.484375 11.296875 -56.484375 C 12.046875 -56.484375 12.695312 -56.484375 13.25 -56.484375 C 13.800781 -56.484375 14.414062 -56.519531 15.09375 -56.59375 C 15.507812 -56.65625 15.882812 -56.703125 16.21875 -56.734375 C 16.5625 -56.773438 16.972656 -56.796875 17.453125 -56.796875 C 18.078125 -56.796875 18.488281 -56.742188 18.6875 -56.640625 C 18.894531 -56.535156 19.132812 -56.3125 19.40625 -55.96875 C 19.476562 -55.90625 19.515625 -55.835938 19.515625 -55.765625 C 19.515625 -55.703125 19.546875 -55.671875 19.609375 -55.671875 C 19.679688 -55.597656 19.695312 -55.492188 19.65625 -55.359375 C 19.625 -55.222656 19.644531 -55.117188 19.71875 -55.046875 C 19.851562 -54.835938 19.9375 -54.597656 19.96875 -54.328125 C 20.007812 -54.054688 20.203125 -53.921875 20.546875 -53.921875 C 20.679688 -53.847656 21.109375 -54.066406 21.828125 -54.578125 C 22.546875 -55.097656 23.210938 -55.492188 23.828125 -55.765625 C 24.441406 -56.109375 25.3125 -56.453125 26.4375 -56.796875 C 27.570312 -57.140625 28.894531 -57.3125 30.40625 -57.3125 C 33 -57.3125 35.476562 -56.59375 37.84375 -55.15625 C 40.207031 -53.71875 41.9375 -51.457031 43.03125 -48.375 C 43.582031 -46.9375 43.890625 -45.394531 43.953125 -43.75 C 44.023438 -42.101562 44.0625 -41.179688 44.0625 -40.984375 Z M 44.0625 -40.984375 "/></g></g></g><g fill="#ff3131" fill-opacity="1"><g transform="translate(547.067407, 111.626125)"><g><path d="M 43.859375 -11.8125 C 43.859375 -9.28125 43.617188 -6.765625 43.140625 -4.265625 C 42.660156 -1.765625 41.679688 0.492188 40.203125 2.515625 C 38.734375 4.535156 36.507812 6.144531 33.53125 7.34375 C 30.550781 8.539062 26.53125 9.140625 21.46875 9.140625 C 19.34375 9.140625 17.203125 9.035156 15.046875 8.828125 C 12.890625 8.628906 11.003906 8.320312 9.390625 7.90625 C 7.785156 7.5 6.707031 6.988281 6.15625 6.375 C 5.820312 6.03125 5.65625 5.34375 5.65625 4.3125 L 5.65625 2.875 C 5.65625 1.226562 5.671875 -0.378906 5.703125 -1.953125 C 5.734375 -3.523438 5.921875 -4.550781 6.265625 -5.03125 C 6.609375 -5.507812 6.953125 -5.867188 7.296875 -6.109375 C 7.640625 -6.347656 8.1875 -6.46875 8.9375 -6.46875 C 10.238281 -6.46875 11.144531 -6.3125 11.65625 -6 C 12.164062 -5.695312 13.039062 -5.375 14.28125 -5.03125 C 14.476562 -5.03125 15.140625 -4.976562 16.265625 -4.875 C 17.398438 -4.769531 18.550781 -4.679688 19.71875 -4.609375 C 20.882812 -4.546875 21.535156 -4.515625 21.671875 -4.515625 C 23.515625 -4.515625 24.984375 -5.023438 26.078125 -6.046875 C 27.179688 -7.078125 27.734375 -8.039062 27.734375 -8.9375 C 27.734375 -9.957031 27.253906 -10.46875 26.296875 -10.46875 C 25.953125 -10.46875 25.347656 -10.296875 24.484375 -9.953125 C 23.628906 -9.617188 23.035156 -9.382812 22.703125 -9.25 C 21.742188 -8.96875 20.800781 -8.828125 19.875 -8.828125 C 18.945312 -8.828125 18.347656 -8.828125 18.078125 -8.828125 C 14.921875 -8.828125 12.382812 -9.441406 10.46875 -10.671875 C 8.550781 -11.910156 7.078125 -13.398438 6.046875 -15.140625 C 5.023438 -16.890625 4.289062 -18.585938 3.84375 -20.234375 C 3.40625 -21.878906 3.117188 -23.113281 2.984375 -23.9375 C 2.703125 -25.300781 2.492188 -26.492188 2.359375 -27.515625 C 2.222656 -28.546875 2.15625 -30.257812 2.15625 -32.65625 C 2.15625 -33.75 2.253906 -35.1875 2.453125 -36.96875 C 2.660156 -38.75 2.96875 -40.507812 3.375 -42.25 C 3.789062 -44 4.238281 -45.425781 4.71875 -46.53125 C 5.40625 -48.03125 6.160156 -49.3125 6.984375 -50.375 C 7.804688 -51.4375 8.457031 -52.207031 8.9375 -52.6875 C 9.820312 -53.644531 11.019531 -54.632812 12.53125 -55.65625 C 14.039062 -56.6875 15.957031 -57.203125 18.28125 -57.203125 L 18.796875 -57.203125 C 19.546875 -57.203125 20.398438 -57.113281 21.359375 -56.9375 C 22.316406 -56.769531 23.175781 -56.484375 23.9375 -56.078125 C 24.550781 -55.804688 25.128906 -55.445312 25.671875 -55 C 26.222656 -54.550781 26.566406 -54.328125 26.703125 -54.328125 C 26.972656 -54.328125 27.109375 -54.566406 27.109375 -55.046875 C 27.109375 -55.523438 27.144531 -55.800781 27.21875 -55.875 C 27.425781 -56.144531 27.578125 -56.363281 27.671875 -56.53125 C 27.773438 -56.707031 28.066406 -56.796875 28.546875 -56.796875 C 29.578125 -56.796875 30.503906 -56.757812 31.328125 -56.6875 C 32.148438 -56.625 33.039062 -56.59375 34 -56.59375 C 35.09375 -56.59375 36.082031 -56.640625 36.96875 -56.734375 C 37.863281 -56.835938 38.859375 -56.890625 39.953125 -56.890625 C 41.941406 -56.890625 43.085938 -56.632812 43.390625 -56.125 C 43.703125 -55.613281 43.859375 -54.707031 43.859375 -53.40625 C 43.859375 -52.3125 43.820312 -51.351562 43.75 -50.53125 C 43.6875 -49.707031 43.65625 -48.75 43.65625 -47.65625 C 43.65625 -46.144531 43.6875 -44.753906 43.75 -43.484375 C 43.820312 -42.222656 43.859375 -40.804688 43.859375 -39.234375 C 43.859375 -37.585938 43.804688 -35.925781 43.703125 -34.25 C 43.597656 -32.570312 43.507812 -30.910156 43.4375 -29.265625 C 43.375 -26.046875 43.425781 -23.132812 43.59375 -20.53125 C 43.769531 -17.9375 43.859375 -15.03125 43.859375 -11.8125 Z M 27.109375 -30.90625 L 27.109375 -34.609375 C 27.109375 -35.160156 27.019531 -35.984375 26.84375 -37.078125 C 26.675781 -38.171875 26.316406 -39.160156 25.765625 -40.046875 C 25.222656 -40.941406 24.367188 -41.351562 23.203125 -41.28125 C 22.453125 -41.144531 21.835938 -40.90625 21.359375 -40.5625 C 20.609375 -40.082031 20.046875 -39.328125 19.671875 -38.296875 C 19.296875 -37.273438 19.054688 -36.25 18.953125 -35.21875 C 18.847656 -34.195312 18.796875 -33.410156 18.796875 -32.859375 C 18.796875 -30.460938 19.085938 -28.441406 19.671875 -26.796875 C 20.253906 -25.160156 21.46875 -24.34375 23.3125 -24.34375 C 24.6875 -24.34375 25.660156 -24.957031 26.234375 -26.1875 C 26.816406 -27.414062 27.109375 -28.988281 27.109375 -30.90625 Z M 27.109375 -30.90625 "/></g></g></g></svg>