<?xml version="1.0" encoding="UTF-8"?>
<svg xmlns="http://www.w3.org/2000/svg" version="1.1" viewBox="0 0 936 1368">
  <!-- Generator: Adobe Illustrator 29.2.1, SVG Export Plug-In . SVG Version: 2.1.0 Build 116)  -->
  <defs>
    <style>
      .st0 {
        fill: #fff;
      }

      .st1 {
        fill: #ed1c24;
      }

      .st2 {
        fill: #020202;
      }
    </style>
  </defs>
  <g id="Layer_1">
    <rect class="st2" width="936" height="1368"/>
  </g>
  <g id="Layer_3">
    <g>
      <path class="st1" d="M203.05,389.19c.03-.06.03-.16.03-.16,0,.05-.02.1-.03.16Z"/>
      <path class="st1" d="M184.12,437.15s4.98,6.4,6.87,7.82c1.9,1.42,9.72-.95,11.38-3.08,1.66-2.13,1.66-17.07-1.66-22.52,0,0-5.69.95-9.24,1.66,0,0-8.06-2.61-10.9-3.32,0,0-3.32-16.83.95-19.2,4.27-2.37,8.53-1.19,10.19-.47,1.65.71,10.3-.7,11.35-8.85-.07.16-.33.04-1.28-2.88-1.3-4.03,1.19-4.86.95-6.64-.24-1.78-3.44-2.37-5.1-.83-1.66,1.54-3.91,2.13-5.57,1.78-1.66-.36-3.56-1.78-3.79-3.56-.24-1.78.24-2.37-1.66-1.78-1.9.59-6.64,2.13-6.28-2.13.36-4.27-3.08-18.37,5.1-16.95,0,0,1.66,1.07,2.84-1.54,1.18-2.61,2.84-2.96,4.86-2.73,2.01.24,6.05-.28,6.4,4.78h14.54v-9.88s-1.5-7.58-10.04-9.01c0,0-19.91-3.79-31.52.47,0,0-10.67,4.03-11.61,9.48,0,0-17.62,44.72,1.34,82.88,0,0,6.32,8.85,21.89,6.48Z"/>
      <path class="st0" d="M190.84,373.21c-2.88-2.07-7.21-1.06-7.39-1.02-.27.06-.43.33-.37.6.06.27.34.43.6.37.04,0,4.08-.95,6.58.86,1.16.83,1.82,2.15,1.97,3.91.02.26.24.46.5.46.01,0,.03,0,.04,0,.27-.02.48-.27.45-.54-.18-2.07-.98-3.63-2.39-4.64Z"/>
      <path class="st0" d="M192.77,355.63c-.27-.02-.52.18-.54.45-.15,1.76-.82,3.08-1.97,3.91-2.5,1.8-6.54.87-6.58.86-.27-.06-.54.1-.6.37-.06.27.1.54.37.6.09.02,1.22.29,2.68.29s3.27-.26,4.71-1.3c1.41-1.01,2.21-2.57,2.39-4.64.02-.28-.18-.52-.45-.54Z"/>
      <path class="st0" d="M203.6,362.12c1.46,0,2.59-.26,2.68-.29.27-.06.43-.33.37-.6-.06-.27-.33-.43-.6-.37-.04,0-4.08.95-6.58-.86-1.16-.83-1.82-2.15-1.98-3.91-.02-.28-.27-.49-.54-.45-.27.02-.48.27-.45.54.18,2.07.98,3.63,2.39,4.64,1.44,1.04,3.24,1.3,4.71,1.3Z"/>
      <path class="st0" d="M207.39,387.1c.1.1.22.14.35.14s.26-.05.36-.15c4.8-4.9,4.1-8.74,3.25-10.6-1.25-2.74-4.46-4.67-7.43-4.47-5.38.34-6.3,4.62-6.31,4.67-.05.27.12.53.39.59.27.05.53-.12.59-.39.03-.15.8-3.58,5.39-3.87,2.59-.16,5.37,1.51,6.46,3.89,1.28,2.8.19,6.17-3.06,9.48-.19.2-.19.51,0,.71Z"/>
      <polygon class="st0" points="191.62 417.71 198.42 416.6 198.42 400.17 191.62 401.35 191.62 417.71"/>
      <polygon class="st0" points="198.26 447.73 191.62 448.84 191.62 504.62 160.96 504.62 160.96 511.41 228.91 511.41 228.91 504.62 198.41 504.62 198.26 447.73"/>
      <path class="st1" d="M118.7,357.21h5.78v-10.01h-30.71v10.01h5.78l-9.13,62.9h-5.17v10.01h22.17v-10.01h-5.27l2.03-18.82h9.9l2.03,18.82h-5.27v10.01h22.18v-10.01h-5.17l-9.13-62.9ZM104.91,391.27l3.55-36.98h1.32l3.55,36.98h-8.42Z"/>
      <path class="st1" d="M267.75,420.11h-6.16v-27.62c1.87,0,3.41-.11,4.62-.33l10.19,37.97h14.02v-10.01h-4.95l-8.99-30.88c6.58-4.25,9.87-10.76,9.87-19.53,0-6.79-2.04-12.23-6.11-16.34-4.07-4.11-9.61-6.16-16.62-6.16h-20.74v10.01h6.99v62.9h-6.99v10.01h24.87v-10.01ZM261.59,357.21c4.4,0,7.58.91,9.55,2.73,1.96,1.82,2.94,5.07,2.94,9.77,0,4.44-.97,7.68-2.92,9.71-1.94,2.04-5.14,3.05-9.58,3.05v-25.26Z"/>
      <path class="st1" d="M357.17,420.11h-6.88v-21.9c8.99,0,15.39-2.24,19.2-6.71,3.82-4.48,5.73-10.68,5.73-18.6s-2.03-14.32-6.08-18.87c-4.05-4.55-9.66-6.82-16.81-6.82h-20.53v10.01h6.77v62.9h-6.77v10.01h25.37v-10.01ZM350.29,357.21c4.18,0,7.33,1.09,9.44,3.28,2.11,2.18,3.16,6.28,3.16,12.3,0,4.66-.58,8.11-1.76,10.35-1.18,2.24-2.61,3.64-4.32,4.21-1.71.57-3.88.85-6.52.85v-30.98Z"/>
      <polygon class="st1" points="416.66 394.08 406.64 394.08 406.64 420.11 396.52 420.11 396.52 357.21 402.84 357.21 402.84 347.19 378.8 347.19 378.8 357.21 384.79 357.21 384.79 420.11 378.8 420.11 378.8 430.12 416.66 430.12 416.66 394.08"/>
      <path class="st1" d="M426.62,413.78c0,5.21,1.58,9.46,4.73,12.77,3.15,3.3,7.46,4.95,12.93,4.95,4.99,0,9.17-1.71,12.55-5.15,3.38-3.43,5.06-8.91,5.06-16.43v-52.72h6.16v-10.01h-20.47v10.01h4.29v53.21c0,3.96-.5,6.77-1.48,8.42-.99,1.65-2.75,2.48-5.28,2.48s-4.2-.82-5.23-2.45c-1.03-1.63-1.54-4.45-1.54-8.45v-53.21h4.4v-10.01h-22.45v10.01h6.33v56.57Z"/>
      <path class="st1" d="M494.9,420.11h-6.22v-42.15l-.66-22.23h1.1l4.2,31.81,7.65,42.59h3.53l7.84-46,3.74-28.39h1.1l-.88,22.34v42.04h-6.22v10.01h24.38v-10.01h-6.33v-62.9h6.22v-10.01h-24.8l-2.58,15.79c-.62,3.67-1.26,8.18-1.92,13.54l-1.71,13.59h-.33l-1.44-15.46c-.41-4.18-.83-7.5-1.28-9.96l-3.2-17.5h-24.65v10.01h6.22v62.9h-6.22v10.01h22.45v-10.01Z"/>
      <path class="st1" d="M575.74,423.9c4.18-4.15,6.27-9.85,6.27-17.12,0-5.36-1.28-9.9-3.85-13.63-2.57-3.73-6.13-6.03-10.68-6.91v-.22c3.96-.44,7.05-2.23,9.27-5.36,2.22-3.13,3.33-7.16,3.33-12.07,0-6.64-1.96-11.86-5.89-15.67-3.93-3.81-9.32-5.72-16.18-5.72h-18.49v10.01h6.33v62.9h-6.33v10.01h18.38c7.71,0,13.65-2.07,17.83-6.22ZM557.58,357.21c4.37,0,7.24.96,8.61,2.86,1.38,1.91,2.07,5.12,2.07,9.63,0,3.67-.47,6.37-1.41,8.09-.94,1.72-2.12,2.81-3.55,3.25-1.43.44-3.34.68-5.72.72v-24.54ZM557.58,391.77c2.53,0,4.6.27,6.19.8,1.6.53,3.01,1.87,4.24,4,1.23,2.13,1.84,5.35,1.84,9.65,0,4.85-.96,8.38-2.89,10.59-1.92,2.21-5.05,3.31-9.38,3.31v-28.34Z"/>
      <polygon class="st1" points="611.9 420.11 605.57 420.11 605.57 357.21 611.9 357.21 611.9 347.19 587.52 347.19 587.52 357.21 593.85 357.21 593.85 420.11 587.52 420.11 587.52 430.12 611.9 430.12 611.9 420.11"/>
      <path class="st1" d="M638.53,420.11h-5.62v-27.73l-.88-25.26h.33l4.57,18.65c1.21,4.92,2.37,9.1,3.47,12.55l10.18,31.81h9.25v-72.91h5.67v-10.01h-21.3v10.01h5.61v19.26l1.26,25.04h-.33l-5.62-24.21-9.52-30.1h-18.38v10.01h5.67v62.9h-5.67v10.01h21.3v-10.01Z"/>
      <path class="st1" d="M676.99,421.54c1.72,3.37,3.81,5.88,6.27,7.51,2.46,1.63,5.13,2.45,8.03,2.45,5.91,0,10.5-2.96,13.79-8.89,3.28-5.92,4.92-14.24,4.92-24.96v-7.54h-17.83v10.02h5.67c0,6.75-.38,11.84-1.15,15.27-.77,3.43-2.46,5.15-5.06,5.15-1.8,0-3.12-.8-3.96-2.4-.84-1.59-1.43-4.63-1.76-9.11-.33-4.48-.5-11.57-.5-21.3,0-8.91.18-15.55.55-19.89.37-4.35.96-7.28,1.79-8.8.82-1.52,2.08-2.28,3.77-2.28,4.44,0,6.66,5.78,6.66,17.33h10.02v-26.91h-10.02v3.14c-2.71-3.01-5.68-4.51-8.91-4.51-5.76,0-9.98,3.48-12.66,10.43-2.68,6.95-4.02,17.95-4.02,32.99,0,8.33.3,14.95.91,19.87.61,4.92,1.77,9.06,3.5,12.44Z"/>
      <polygon class="st1" points="792.11 394.08 782.09 394.08 782.09 420.11 771.97 420.11 771.97 357.21 778.3 357.21 778.3 347.19 754.25 347.19 754.25 357.21 760.25 357.21 760.25 420.11 754.25 420.11 754.25 430.12 792.11 430.12 792.11 394.08"/>
      <polygon class="st1" points="824.36 420.11 814.23 420.11 814.23 357.21 820.56 357.21 820.56 347.19 796.51 347.19 796.51 357.21 802.51 357.21 802.51 420.11 796.51 420.11 796.51 430.12 834.37 430.12 834.37 394.08 824.36 394.08 824.36 420.11"/>
      <path class="st1" d="M866.95,400.57c0,7.15-.55,12.27-1.65,15.35-1.1,3.08-2.84,4.62-5.22,4.62-2.79,0-4.63-2.13-5.53-6.38-.9-4.26-1.35-12.95-1.35-26.08,0-9.54.15-16.43.44-20.66.29-4.24.83-7.07,1.62-8.5.79-1.43,2.06-2.15,3.83-2.15,2.38,0,4.22,1.49,5.5,4.46,1.29,2.97,1.93,7.26,1.93,12.88h10.01v-26.91h-10.01v4.02h-.22c-2.06-3.59-5.06-5.39-9.03-5.39-11.26,0-16.89,14.58-16.89,43.75,0,14.12,1.59,24.64,4.79,31.56,3.19,6.92,8.09,10.37,14.7,10.37,5.36,0,9.57-2.5,12.65-7.51,3.08-5.01,4.66-11.86,4.73-20.55l-10.29-2.86Z"/>
      <path class="st0" d="M258.45,469.87h-10.16v4.95h3.35v31.12h-3.35v4.95h12.55v-4.95h-3.4v-10.84c4.45,0,7.61-1.11,9.5-3.32,1.89-2.21,2.83-5.28,2.83-9.2s-1-7.09-3.01-9.34c-2.01-2.25-4.78-3.38-8.32-3.38ZM262.8,487.65c-.58,1.11-1.29,1.8-2.14,2.08-.84.28-1.92.42-3.23.42v-15.33c2.07,0,3.63.54,4.67,1.62,1.04,1.08,1.56,3.11,1.56,6.09,0,2.3-.29,4.01-.87,5.12Z"/>
      <polygon class="st0" points="290.27 493.06 285.32 493.06 285.32 505.94 280.31 505.94 280.31 474.82 283.44 474.82 283.44 469.87 271.54 469.87 271.54 474.82 274.51 474.82 274.51 505.94 271.54 505.94 271.54 510.9 290.27 510.9 290.27 493.06"/>
      <path class="st0" d="M295.2,502.81c0,2.58.78,4.68,2.34,6.32,1.56,1.63,3.69,2.45,6.4,2.45,2.47,0,4.54-.85,6.21-2.55s2.5-4.41,2.5-8.13v-26.08h3.05v-4.95h-10.13v4.95h2.12v26.33c0,1.96-.24,3.35-.73,4.17-.49.82-1.36,1.22-2.61,1.22s-2.08-.4-2.59-1.21c-.51-.81-.76-2.2-.76-4.18v-26.33h2.18v-4.95h-11.11v4.95h3.13v27.99Z"/>
      <path class="st0" d="M339.58,505.94h-3.08v4.95h12.06v-4.95h-3.13v-31.12h3.08v-4.95h-12.27l-1.28,7.81c-.31,1.82-.62,4.05-.95,6.7l-.84,6.72h-.16l-.71-7.65c-.2-2.07-.41-3.71-.63-4.93l-1.58-8.66h-12.2v4.95h3.08v31.12h-3.08v4.95h11.11v-4.95h-3.08v-20.85l-.33-11h.55l2.08,15.74,3.79,21.07h1.74l3.88-22.76,1.85-14.05h.54l-.43,11.05v20.8Z"/>
      <path class="st0" d="M364.89,489.19v-.11c1.96-.22,3.49-1.1,4.59-2.65,1.1-1.55,1.65-3.54,1.65-5.97,0-3.28-.97-5.87-2.91-7.75-1.94-1.89-4.61-2.83-8-2.83h-9.15v4.95h3.13v31.12h-3.13v4.95h9.09c3.81,0,6.75-1.03,8.82-3.08,2.07-2.05,3.1-4.88,3.1-8.47,0-2.65-.64-4.9-1.91-6.74-1.27-1.84-3.03-2.98-5.28-3.42ZM359.99,474.82c2.16,0,3.58.47,4.26,1.42.68.94,1.02,2.53,1.02,4.76,0,1.82-.23,3.15-.69,4-.46.85-1.05,1.39-1.76,1.61-.71.22-1.65.34-2.83.35v-12.14ZM364.64,504.31c-.95,1.09-2.5,1.64-4.64,1.64v-14.02c1.25,0,2.27.13,3.06.4.79.26,1.49.92,2.1,1.98.61,1.05.91,2.65.91,4.77,0,2.4-.48,4.15-1.43,5.24Z"/>
      <polygon class="st0" points="386.87 505.94 383.73 505.94 383.73 474.82 386.87 474.82 386.87 469.87 374.81 469.87 374.81 474.82 377.94 474.82 377.94 505.94 374.81 505.94 374.81 510.9 386.87 510.9 386.87 505.94"/>
      <path class="st0" d="M399.25,488.95c.6,2.43,1.17,4.5,1.71,6.21l5.04,15.74h4.57v-36.07h2.8v-4.95h-10.54v4.95h2.78v9.53l.63,12.39h-.16l-2.78-11.98-4.71-14.89h-9.09v4.95h2.8v31.12h-2.8v4.95h10.54v-4.95h-2.78v-13.72l-.44-12.5h.16l2.26,9.23Z"/>
      <path class="st0" d="M432.97,507.18c1.62-2.93,2.44-7.05,2.44-12.35v-3.73h-8.82v4.96h2.8c0,3.34-.19,5.86-.57,7.55-.38,1.7-1.22,2.55-2.5,2.55-.89,0-1.54-.4-1.96-1.18-.42-.79-.71-2.29-.87-4.51-.16-2.21-.25-5.73-.25-10.54,0-4.41.09-7.69.27-9.84.18-2.15.48-3.6.89-4.36.41-.75,1.03-1.13,1.86-1.13,2.2,0,3.29,2.86,3.29,8.58h4.96v-13.31h-4.96v1.55c-1.34-1.49-2.81-2.23-4.41-2.23-2.85,0-4.94,1.72-6.26,5.16-1.33,3.44-1.99,8.88-1.99,16.32,0,4.12.15,7.4.45,9.83.3,2.43.88,4.48,1.73,6.15.85,1.67,1.89,2.91,3.1,3.72,1.22.81,2.54,1.21,3.97,1.21,2.92,0,5.19-1.47,6.82-4.4Z"/>
      <rect class="st1" x="456.76" y="486.99" width="7.71" height="9.28"/>
      <path class="st0" d="M497,505.9c2.15-3.33,3.23-8.45,3.23-15.37s-1.05-12.27-3.16-15.63c-2.11-3.36-5.52-5.04-10.24-5.04h-7.41v4.95h3v31.12h-3v4.95h7.57c4.52,0,7.85-1.66,10-5ZM488.22,474.82c1.48,0,2.62.49,3.42,1.48.8.99,1.38,2.65,1.72,5,.35,2.34.52,5.64.52,9.91,0,5.46-.41,9.27-1.25,11.43-.83,2.16-2.3,3.26-4.42,3.29v-31.12Z"/>
      <path class="st0" d="M514.28,492.11l5.04,18.78h6.94v-4.95h-2.45l-4.45-15.28c3.26-2.1,4.88-5.33,4.88-9.66,0-3.36-1.01-6.05-3.02-8.08-2.02-2.03-4.75-3.05-8.22-3.05h-10.26v4.95h3.46v31.12h-3.46v4.95h12.31v-4.95h-3.05v-13.67c.93,0,1.69-.05,2.29-.16ZM511.99,474.82c2.18,0,3.75.45,4.72,1.35.97.9,1.46,2.51,1.46,4.83,0,2.2-.48,3.8-1.44,4.8-.96,1.01-2.54,1.51-4.74,1.51v-12.5Z"/>
      <path class="st0" d="M540.44,510.9h10.97v-4.95h-2.56l-4.52-31.12h2.86v-4.95h-15.19v4.95h2.86l-4.52,31.12h-2.56v4.95h10.97v-4.95h-2.61l1-9.31h4.9l1,9.31h-2.61v4.95ZM537.51,491.68l1.76-18.3h.65l1.76,18.3h-4.17Z"/>
      <polygon class="st0" points="565.65 474.82 565.65 469.87 553.59 469.87 553.59 474.82 556.72 474.82 556.72 505.94 553.59 505.94 553.59 510.9 565.65 510.9 565.65 505.94 562.52 505.94 562.52 474.82 565.65 474.82"/>
      <path class="st0" d="M578.04,488.95c.6,2.43,1.17,4.5,1.71,6.21l5.04,15.74h4.57v-36.07h2.81v-4.95h-10.54v4.95h2.78v9.53l.63,12.39h-.16l-2.78-11.98-4.71-14.89h-9.09v4.95h2.8v31.12h-2.8v4.95h10.54v-4.95h-2.78v-13.72l-.44-12.5h.16l2.26,9.23Z"/>
      <path class="st0" d="M626.58,503.87c-.54,1.52-1.41,2.29-2.59,2.29-1.38,0-2.29-1.05-2.74-3.16-.45-2.11-.67-6.41-.67-12.9,0-4.72.07-8.13.22-10.22.14-2.1.41-3.5.8-4.21.39-.71,1.02-1.06,1.89-1.06,1.18,0,2.08.74,2.72,2.2.63,1.47.95,3.59.95,6.37h4.96v-13.31h-4.96v1.99h-.11c-1.02-1.78-2.5-2.67-4.46-2.67-5.57,0-8.36,7.21-8.36,21.64,0,6.99.79,12.19,2.37,15.61,1.58,3.42,4,5.13,7.27,5.13,2.65,0,4.74-1.24,6.26-3.72,1.52-2.48,2.3-5.87,2.34-10.17l-5.09-1.42c0,3.54-.27,6.07-.82,7.6Z"/>
      <polygon class="st0" points="654.81 493.06 649.86 493.06 649.86 505.94 644.85 505.94 644.85 474.82 647.98 474.82 647.98 469.87 636.08 469.87 636.08 474.82 639.05 474.82 639.05 505.94 636.08 505.94 636.08 510.9 654.81 510.9 654.81 493.06"/>
      <polygon class="st0" points="675.83 481.85 675.83 469.87 656.94 469.87 656.94 474.82 659.96 474.82 659.96 505.94 656.94 505.94 656.94 510.9 675.83 510.9 675.83 498.29 670.88 498.29 670.88 505.94 665.76 505.94 665.76 492.22 669.92 492.22 669.92 487.27 665.76 487.27 665.76 474.82 670.88 474.82 670.88 481.85 675.83 481.85"/>
      <path class="st0" d="M691.35,510.9h10.97v-4.95h-2.56l-4.52-31.12h2.86v-4.95h-15.19v4.95h2.86l-4.52,31.12h-2.56v4.95h10.97v-4.95h-2.61l1-9.31h4.9l1,9.31h-2.61v4.95ZM688.42,491.68l1.75-18.3h.65l1.76,18.3h-4.16Z"/>
      <path class="st0" d="M718.52,484.76l-4.71-14.89h-9.09v4.95h2.8v31.12h-2.8v4.95h10.54v-4.95h-2.78v-13.72l-.44-12.5h.16l2.26,9.23c.6,2.43,1.17,4.5,1.71,6.21l5.04,15.74h4.57v-36.07h2.8v-4.95h-10.54v4.95h2.78v9.53l.63,12.39h-.16l-2.78-11.98Z"/>
      <polygon class="st0" points="731.21 474.82 734.34 474.82 734.34 505.94 731.21 505.94 731.21 510.9 743.27 510.9 743.27 505.94 740.14 505.94 740.14 474.82 743.27 474.82 743.27 469.87 731.21 469.87 731.21 474.82"/>
      <path class="st0" d="M756.44,505.94h-2.78v-13.72l-.44-12.5h.16l2.26,9.23c.6,2.43,1.17,4.5,1.71,6.21l5.04,15.74h4.57v-36.07h2.81v-4.95h-10.54v4.95h2.78v9.53l.62,12.39h-.16l-2.78-11.98-4.71-14.89h-9.09v4.95h2.8v31.12h-2.8v4.95h10.54v-4.95Z"/>
      <path class="st0" d="M780.8,475.74c.41-.75,1.03-1.13,1.87-1.13,2.2,0,3.29,2.86,3.29,8.58h4.96v-13.31h-4.96v1.55c-1.34-1.49-2.81-2.23-4.41-2.23-2.85,0-4.94,1.72-6.26,5.16-1.33,3.44-1.99,8.88-1.99,16.32,0,4.12.15,7.4.45,9.83.3,2.43.88,4.48,1.73,6.15.85,1.67,1.89,2.91,3.1,3.72,1.22.81,2.54,1.21,3.98,1.21,2.92,0,5.19-1.47,6.82-4.4,1.62-2.93,2.44-7.05,2.44-12.35v-3.73h-8.82v4.96h2.8c0,3.34-.19,5.86-.57,7.55-.38,1.7-1.22,2.55-2.5,2.55-.89,0-1.54-.4-1.96-1.18-.42-.79-.71-2.29-.87-4.51-.16-2.21-.25-5.73-.25-10.54,0-4.41.09-7.69.27-9.84.18-2.15.48-3.6.88-4.36Z"/>
      <path class="st1" d="M200.73,568.66c7-3.2,10.5-8.51,10.5-15.95,0-5.72-1.91-10.23-5.73-13.53-3.82-3.3-9.18-4.95-16.07-4.95-6.12,0-11.18,1.68-15.17,5.05-3.99,3.36-6.12,8.23-6.38,14.59l13.12,1.01c0-6.19,2.5-9.29,7.5-9.29,2.23,0,4.03.73,5.42,2.2,1.38,1.46,2.08,3.34,2.08,5.63,0,2.59-.91,4.79-2.73,6.59-1.82,1.8-4.73,2.7-8.73,2.7v11.81c1.28-.07,2.32-.1,3.13-.1,3.36,0,5.89,1,7.57,3,1.68,2,2.52,4.5,2.52,7.5s-.86,5.59-2.57,7.57c-1.72,1.99-3.94,2.98-6.66,2.98-6.02,0-9.12-4.12-9.29-12.37l-13.53,1.11c1.14,14.91,9.24,22.36,24.28,22.36,6.9,0,12.58-1.87,17.06-5.6,4.47-3.73,6.71-8.92,6.71-15.54,0-8.34-4.34-13.93-13.02-16.76Z"/>
      <polygon class="st1" points="255.95 535.45 230.21 535.45 230.21 546.71 240.5 546.71 240.5 594.4 230.81 594.4 230.81 605.66 265.13 605.66 265.13 594.4 255.95 594.4 255.95 535.45"/>
      <path class="st1" d="M306.16,559.58c-4.27,0-8.26,1.33-11.96,3.99l.98-16.86h18.05l.96,5.25h10.25v-16.5h-39.42l-2.07,35.58,11.25,5.6c2.25-3.67,5.06-5.5,8.43-5.5,6.09,0,9.14,4.16,9.14,12.47,0,3.73-.82,6.62-2.45,8.66-1.63,2.04-3.96,3.05-6.99,3.05-5.28,0-8.38-3.36-9.29-10.09l-13.27,1.56c.87,6.06,3.26,10.87,7.17,14.43,3.9,3.57,9.37,5.35,16.4,5.35,8.21,0,14.34-2.3,18.4-6.89,4.05-4.59,6.08-10.3,6.08-17.13,0-6.39-1.89-11.82-5.68-16.28-3.79-4.46-9.11-6.69-15.97-6.69Z"/>
      <rect class="st1" x="336.8" y="574.41" width="28.21" height="13.63"/>
      <path class="st1" d="M375.71,556.25h11.25v-9.84h18.02c-4.34,6.06-8.29,13.85-11.86,23.39-3.57,9.54-5.5,17.74-5.8,24.6h-8.88v11.25h33.87v-11.25h-8.88c0-8.18,1.81-17.56,5.43-28.14,3.62-10.58,7.19-17.98,10.73-22.18v-8.63h-43.86v20.79Z"/>
      <path class="st1" d="M458.89,560.64c-5.01,0-9.15,1.55-12.42,4.64.1-6.02,1.06-10.89,2.88-14.61,1.82-3.72,4.36-5.58,7.62-5.58,4.04,0,6.76,2.98,8.18,8.93l12.06-1.11c-1.48-12.45-8.04-18.67-19.68-18.67-8.11,0-14.51,2.89-19.2,8.66-4.69,5.77-7.04,15.18-7.04,28.24,0,12.21,2.08,21.17,6.23,26.88,4.16,5.7,10.51,8.55,19.05,8.55,6.49,0,11.71-2.04,15.65-6.11,3.94-4.07,5.9-10.06,5.9-17.97,0-7.1-1.85-12.52-5.55-16.25-3.7-3.73-8.26-5.6-13.68-5.6ZM461.79,592.33c-1.4,2.02-3.22,3.03-5.47,3.03-3.06,0-5.43-1.42-7.09-4.26-1.66-2.84-2.58-8.15-2.75-15.92,2.86-2.02,5.79-3.03,8.78-3.03,2.42,0,4.47.94,6.13,2.83,1.66,1.88,2.5,4.68,2.5,8.38,0,3.97-.7,6.96-2.1,8.98Z"/>
      <path class="st1" d="M523.74,568.79c6.76-3.93,10.14-9.41,10.14-16.44,0-5.31-1.94-9.66-5.83-13.04-3.89-3.38-9.43-5.07-16.63-5.07s-12.46,1.7-16.48,5.09c-4.02,3.4-6.03,7.83-6.03,13.31,0,6.86,3.45,12.24,10.35,16.14-8.31,3.13-12.47,8.82-12.47,17.07,0,5.96,2.04,10.9,6.13,14.82,4.09,3.92,10.19,5.88,18.29,5.88s14.26-1.84,18.45-5.53c4.19-3.69,6.28-8.64,6.28-14.87,0-8.48-4.07-14.28-12.21-17.37ZM505.46,547.56c1.54-1.61,3.53-2.42,5.97-2.42,2.64,0,4.67.87,6.09,2.6,1.42,1.73,2.13,4,2.13,6.79s-.75,5.05-2.23,6.76c-1.49,1.72-3.49,2.57-5.99,2.57s-4.6-.87-6.07-2.62c-1.47-1.75-2.21-3.94-2.21-6.56,0-3.13.77-5.5,2.31-7.12ZM518.37,592.71c-1.8,1.94-4.1,2.9-6.89,2.9s-5.08-.97-6.86-2.9c-1.78-1.93-2.67-4.57-2.67-7.9s.9-6.06,2.7-8.08c1.8-2.02,4.08-3.03,6.84-3.03s5.17,1.03,6.94,3.1c1.77,2.07,2.65,4.74,2.65,8s-.9,5.96-2.7,7.9Z"/>
      <rect class="st1" x="543.47" y="574.41" width="28.21" height="13.63"/>
      <path class="st1" d="M608.53,560.64c-5.01,0-9.15,1.55-12.42,4.64.1-6.02,1.06-10.89,2.88-14.61,1.82-3.72,4.36-5.58,7.62-5.58,4.04,0,6.76,2.98,8.18,8.93l12.06-1.11c-1.48-12.45-8.04-18.67-19.68-18.67-8.11,0-14.51,2.89-19.2,8.66-4.69,5.77-7.04,15.18-7.04,28.24,0,12.21,2.08,21.17,6.23,26.88,4.15,5.7,10.5,8.55,19.05,8.55,6.49,0,11.71-2.04,15.65-6.11,3.94-4.07,5.9-10.06,5.9-17.97,0-7.1-1.85-12.52-5.55-16.25-3.7-3.73-8.26-5.6-13.68-5.6ZM611.43,592.33c-1.4,2.02-3.22,3.03-5.48,3.03-3.06,0-5.43-1.42-7.09-4.26-1.67-2.84-2.58-8.15-2.75-15.92,2.86-2.02,5.79-3.03,8.78-3.03,2.42,0,4.47.94,6.13,2.83,1.67,1.88,2.5,4.68,2.5,8.38,0,3.97-.7,6.96-2.09,8.98Z"/>
      <path class="st1" d="M665.56,560.64c-5.01,0-9.15,1.55-12.42,4.64.1-6.02,1.06-10.89,2.88-14.61,1.82-3.72,4.36-5.58,7.62-5.58,4.04,0,6.76,2.98,8.18,8.93l12.06-1.11c-1.48-12.45-8.04-18.67-19.68-18.67-8.11,0-14.51,2.89-19.2,8.66-4.69,5.77-7.04,15.18-7.04,28.24,0,12.21,2.08,21.17,6.23,26.88,4.15,5.7,10.5,8.55,19.05,8.55,6.49,0,11.71-2.04,15.65-6.11,3.94-4.07,5.9-10.06,5.9-17.97,0-7.1-1.85-12.52-5.55-16.25-3.7-3.73-8.26-5.6-13.68-5.6ZM668.46,592.33c-1.4,2.02-3.22,3.03-5.48,3.03-3.06,0-5.43-1.42-7.09-4.26-1.67-2.84-2.58-8.15-2.75-15.92,2.86-2.02,5.79-3.03,8.78-3.03,2.42,0,4.47.94,6.13,2.83,1.66,1.88,2.5,4.68,2.5,8.38,0,3.97-.7,6.96-2.09,8.98Z"/>
      <path class="st1" d="M722.59,560.64c-5.01,0-9.15,1.55-12.42,4.64.1-6.02,1.06-10.89,2.88-14.61,1.82-3.72,4.36-5.58,7.62-5.58,4.04,0,6.76,2.98,8.18,8.93l12.06-1.11c-1.48-12.45-8.04-18.67-19.68-18.67-8.11,0-14.51,2.89-19.2,8.66-4.69,5.77-7.04,15.18-7.04,28.24,0,12.21,2.08,21.17,6.23,26.88,4.15,5.7,10.5,8.55,19.05,8.55,6.49,0,11.71-2.04,15.65-6.11,3.94-4.07,5.9-10.06,5.9-17.97,0-7.1-1.85-12.52-5.55-16.25-3.7-3.73-8.26-5.6-13.68-5.6ZM725.49,592.33c-1.4,2.02-3.22,3.03-5.48,3.03-3.06,0-5.43-1.42-7.09-4.26-1.67-2.84-2.58-8.15-2.75-15.92,2.86-2.02,5.79-3.03,8.78-3.03,2.42,0,4.47.94,6.13,2.83,1.67,1.88,2.5,4.68,2.5,8.38,0,3.97-.7,6.96-2.09,8.98Z"/>
      <path class="st1" d="M787.45,568.79c6.76-3.93,10.14-9.41,10.14-16.44,0-5.31-1.94-9.66-5.83-13.04-3.89-3.38-9.43-5.07-16.63-5.07s-12.46,1.7-16.48,5.09c-4.02,3.4-6.03,7.83-6.03,13.31,0,6.86,3.45,12.24,10.35,16.14-8.31,3.13-12.47,8.82-12.47,17.07,0,5.96,2.04,10.9,6.13,14.82,4.09,3.92,10.19,5.88,18.29,5.88s14.26-1.84,18.45-5.53c4.19-3.69,6.28-8.64,6.28-14.87,0-8.48-4.07-14.28-12.21-17.37ZM769.17,547.56c1.54-1.61,3.53-2.42,5.97-2.42,2.64,0,4.67.87,6.09,2.6,1.42,1.73,2.13,4,2.13,6.79s-.75,5.05-2.23,6.76c-1.49,1.72-3.49,2.57-5.99,2.57s-4.6-.87-6.07-2.62c-1.47-1.75-2.21-3.94-2.21-6.56,0-3.13.77-5.5,2.31-7.12ZM782.07,592.71c-1.8,1.94-4.1,2.9-6.89,2.9s-5.08-.97-6.86-2.9c-1.78-1.93-2.67-4.57-2.67-7.9s.9-6.06,2.7-8.08c1.8-2.02,4.08-3.03,6.84-3.03s5.17,1.03,6.94,3.1c1.77,2.07,2.65,4.74,2.65,8s-.9,5.96-2.7,7.9Z"/>
    </g>
  </g>
</svg>